<svg width="43" height="44" viewBox="0 0 43 44" fill="none" xmlns="http://www.w3.org/2000/svg">
<path d="M21.061 21.9962L12.6957 7.29205L4.20996 21.9897L12.6411 36.5799L29.606 36.6522L38.0917 21.9545L21.061 21.9962Z" fill="#42E8E0"/>
<path d="M12.6411 36.5799L4.20996 21.9897L12.6957 7.29205L21.061 21.9962L12.6411 36.5799Z" fill="#42E8E0"/>
<path d="M29.606 36.6522L12.6411 36.5799L21.061 21.9962L38.0917 21.9545L29.606 36.6522Z" fill="#2FD3C7"/>
<path d="M21.0618 21.9964L12.6964 7.29224L29.5475 7.29871L38.0925 21.9547L21.0618 21.9964Z" fill="#42E8E0"/>
<path d="M21.061 21.9962L12.6957 7.29205L12.301 7.97566L20.7321 22.5659L37.697 22.6381L38.0917 21.9545L21.061 21.9962Z" fill="white"/>
</svg>
