<svg width="25" height="21" viewBox="0 0 25 21" fill="none" xmlns="http://www.w3.org/2000/svg">
<path d="M24.023 3.92303C23.9913 3.86728 23.9489 3.81833 23.8983 3.77896C23.8476 3.7396 23.7898 3.71059 23.7279 3.6936C23.6661 3.6766 23.6015 3.67196 23.5378 3.67992C23.4742 3.68789 23.4128 3.70832 23.357 3.74003C23.3013 3.77174 23.2523 3.81413 23.2129 3.86476C23.1736 3.91539 23.1446 3.97329 23.1276 4.03513C23.1106 4.09697 23.1059 4.16156 23.1139 4.2252C23.1219 4.28884 23.1423 4.35028 23.174 4.40603C23.8791 5.65291 24.1567 7.09629 23.9644 8.51575C23.7721 9.93521 23.1204 11.2527 22.109 12.267L21.739 12.637C21.6471 12.3953 21.505 12.1758 21.322 11.993L16.3 6.97603C16.6333 6.81266 16.9374 6.59541 17.2 6.33303L18.162 5.37103C18.2536 5.2794 18.3051 5.15512 18.3051 5.02553C18.3051 4.89594 18.2536 4.77166 18.162 4.68003C18.0704 4.5884 17.9461 4.53692 17.8165 4.53692C17.6869 4.53692 17.5626 4.5884 17.471 4.68003L16.509 5.64203C16.2872 5.86473 16.0235 6.04126 15.7331 6.16142C15.4427 6.28157 15.1313 6.34295 14.817 6.34203H12.895C12.7656 6.34218 12.6416 6.3936 12.55 6.48503L11.077 7.95903C10.8646 8.1588 10.5827 8.26802 10.2911 8.26355C9.99956 8.25907 9.72119 8.14125 9.51499 7.93505C9.30879 7.72885 9.19097 7.45048 9.18649 7.1589C9.18202 6.86732 9.29124 6.58546 9.49101 6.37303L12.853 3.01103C13.8598 2.00961 15.1638 1.36122 16.5699 1.16293C17.976 0.964632 19.4086 1.2271 20.653 1.91103C20.7091 1.94215 20.7707 1.96193 20.8345 1.96922C20.8982 1.97652 20.9627 1.97119 21.0244 1.95355C21.086 1.93591 21.1436 1.90629 21.1938 1.8664C21.244 1.8265 21.2859 1.7771 21.317 1.72103C21.3481 1.66496 21.3679 1.6033 21.3752 1.53958C21.3825 1.47587 21.3772 1.41134 21.3595 1.34968C21.3419 1.28802 21.3123 1.23044 21.2724 1.18023C21.2325 1.13002 21.1831 1.08815 21.127 1.05703C19.7119 0.277606 18.0847 -0.0289851 16.483 0.18203C15.0031 0.374938 13.6153 1.00836 12.5 2.00003C11.0354 0.707237 9.12516 0.0350711 7.17369 0.125794C5.22221 0.216517 3.38261 1.06301 2.04422 2.48611C0.705841 3.90921 -0.0262887 5.79725 0.00278717 7.75062C0.031863 9.70399 0.819863 11.5694 2.20001 12.952L2.38401 13.136C2.41529 13.167 2.45061 13.1936 2.48901 13.215C2.52336 13.6775 2.73145 14.1098 3.07147 14.4252C3.4115 14.7406 3.85826 14.9155 4.32201 14.915H4.39501C4.39501 14.94 4.39501 14.964 4.39501 14.989C4.39501 15.2306 4.44261 15.4698 4.53509 15.693C4.62757 15.9162 4.76312 16.119 4.93399 16.2898C5.10487 16.4605 5.30771 16.596 5.53095 16.6883C5.75418 16.7807 5.99342 16.8282 6.23501 16.828H6.30801C6.30801 16.853 6.30801 16.877 6.30801 16.902C6.30801 17.1436 6.35561 17.3828 6.44809 17.606C6.54057 17.8292 6.67612 18.032 6.84699 18.2028C7.01787 18.3735 7.22071 18.509 7.44395 18.6013C7.66718 18.6937 7.90642 18.7412 8.14801 18.741H8.22201C8.20652 19.1111 8.30317 19.4773 8.49928 19.7915C8.69539 20.1058 8.98183 20.3535 9.32108 20.5022C9.66034 20.6509 10.0366 20.6937 10.4006 20.625C10.7646 20.5562 11.0993 20.3792 11.361 20.117L12.043 19.434L12.965 20.356C13.2284 20.6187 13.5652 20.7953 13.931 20.8626C14.2968 20.9299 14.6744 20.8847 15.014 20.7329C15.3536 20.5812 15.6392 20.33 15.833 20.0126C16.0269 19.6952 16.12 19.3264 16.1 18.955H16.192C16.4399 18.9554 16.6852 18.9056 16.9133 18.8086C17.1414 18.7116 17.3475 18.5695 17.5192 18.3908C17.691 18.212 17.8247 18.0004 17.9125 17.7686C18.0003 17.5368 18.0403 17.2897 18.03 17.042H18.104C18.3519 17.0422 18.5973 16.9923 18.8254 16.8952C19.0535 16.7981 19.2596 16.6559 19.4313 16.4771C19.603 16.2983 19.7368 16.0866 19.8245 15.8548C19.9123 15.6229 19.9523 15.3757 19.942 15.128H20.016C20.3798 15.1296 20.7358 15.0233 21.0391 14.8225C21.3424 14.6217 21.5794 14.3355 21.72 14C21.7689 13.9766 21.8135 13.9451 21.852 13.907L22.799 12.96C23.9622 11.7942 24.7116 10.2796 24.9326 8.64762C25.1536 7.01568 24.8342 5.35625 24.023 3.92303ZM4.32501 13.936C4.15431 13.9359 3.98749 13.8851 3.8456 13.7902C3.70371 13.6954 3.5931 13.5606 3.52774 13.4029C3.46238 13.2452 3.44519 13.0717 3.47834 12.9042C3.51149 12.7368 3.59349 12.5829 3.71401 12.462L4.55601 11.62C4.63501 11.5348 4.7304 11.4664 4.83647 11.4188C4.94253 11.3713 5.0571 11.3457 5.1733 11.3435C5.2895 11.3413 5.40495 11.3626 5.51275 11.406C5.62054 11.4495 5.71846 11.5142 5.80064 11.5964C5.88282 11.6786 5.94758 11.7765 5.99103 11.8843C6.03449 11.9921 6.05575 12.1075 6.05354 12.2237C6.05134 12.3399 6.02571 12.4545 5.97819 12.5606C5.93068 12.6666 5.86225 12.762 5.77701 12.841L4.93501 13.683C4.85508 13.7634 4.76003 13.8271 4.65532 13.8706C4.55062 13.914 4.43836 13.9362 4.32501 13.936ZM5.62501 15.595C5.54479 15.5149 5.48116 15.4197 5.43774 15.315C5.39432 15.2102 5.37197 15.0979 5.37197 14.9845C5.37197 14.8711 5.39432 14.7589 5.43774 14.6541C5.48116 14.5493 5.54479 14.4542 5.62501 14.374L6.46701 13.532C6.63091 13.3801 6.84729 13.2976 7.07072 13.3019C7.29415 13.3061 7.50724 13.3968 7.66526 13.5548C7.82328 13.7128 7.91392 13.9259 7.91816 14.1493C7.92241 14.3727 7.83991 14.5891 7.68801 14.753L6.84601 15.595C6.68463 15.7566 6.4659 15.8478 6.23754 15.8487C6.00918 15.8497 5.78971 15.7603 5.62701 15.6L5.62501 15.595ZM7.53701 17.507C7.45679 17.4269 7.39316 17.3317 7.34974 17.227C7.30632 17.1222 7.28397 17.0099 7.28397 16.8965C7.28397 16.7831 7.30632 16.6709 7.34974 16.5661C7.39316 16.4613 7.45679 16.3662 7.53701 16.286L8.37901 15.444C8.45801 15.3588 8.5534 15.2904 8.65947 15.2428C8.76553 15.1953 8.8801 15.1697 8.9963 15.1675C9.1125 15.1653 9.22795 15.1866 9.33574 15.23C9.44354 15.2735 9.54146 15.3382 9.62364 15.4204C9.70582 15.5026 9.77058 15.6005 9.81403 15.7083C9.85749 15.8161 9.87875 15.9315 9.87654 16.0477C9.87434 16.1639 9.84871 16.2785 9.80119 16.3846C9.75368 16.4906 9.68525 16.586 9.60001 16.665L8.75801 17.507C8.59606 17.6685 8.37669 17.7592 8.14801 17.7592C7.91932 17.7592 7.69996 17.6685 7.53801 17.507H7.53701ZM11.512 18.577L10.67 19.419C10.5052 19.5645 10.2912 19.6418 10.0715 19.635C9.85179 19.6282 9.64292 19.538 9.48742 19.3826C9.33192 19.2272 9.24149 19.0184 9.23454 18.7987C9.22759 18.579 9.30464 18.3649 9.45001 18.2L10.292 17.358C10.4559 17.2061 10.6723 17.1236 10.8957 17.1279C11.1191 17.1321 11.3322 17.2228 11.4903 17.3808C11.6483 17.5388 11.7389 17.7519 11.7432 17.9753C11.7474 18.1987 11.6649 18.4151 11.513 18.579L11.512 18.577ZM20.63 13.905C20.5499 13.9852 20.4547 14.0489 20.3499 14.0923C20.2452 14.1357 20.1329 14.1581 20.0195 14.1581C19.9061 14.1581 19.7938 14.1357 19.6891 14.0923C19.5843 14.0489 19.4892 13.9852 19.409 13.905L17.376 11.872L15.464 9.96003C15.3724 9.8684 15.2481 9.81692 15.1185 9.81692C14.9889 9.81692 14.8646 9.8684 14.773 9.96003C14.6814 10.0517 14.6299 10.1759 14.6299 10.3055C14.6299 10.4351 14.6814 10.5594 14.773 10.651L18.719 14.6C18.8097 14.6775 18.8834 14.7728 18.9355 14.8801C18.9875 14.9874 19.0168 15.1043 19.0215 15.2235C19.0261 15.3427 19.006 15.4615 18.9625 15.5725C18.919 15.6836 18.853 15.7844 18.7686 15.8687C18.6842 15.9529 18.5832 16.0188 18.4721 16.0621C18.361 16.1055 18.2421 16.1254 18.123 16.1205C18.0038 16.1157 17.887 16.0862 17.7797 16.034C17.6725 15.9817 17.5773 15.9079 17.5 15.817L13.556 11.873C13.4644 11.7814 13.3401 11.7299 13.2105 11.7299C13.0809 11.7299 12.9566 11.7814 12.865 11.873C12.7734 11.9647 12.7219 12.0889 12.7219 12.2185C12.7219 12.3481 12.7734 12.4724 12.865 12.564L14.776 14.475L16.809 16.508C16.8943 16.587 16.9627 16.6824 17.0102 16.7885C17.0577 16.8946 17.0833 17.0091 17.0855 17.1253C17.0877 17.2415 17.0665 17.357 17.023 17.4648C16.9796 17.5726 16.9148 17.6705 16.8326 17.7527C16.7505 17.8348 16.6525 17.8996 16.5447 17.9431C16.437 17.9865 16.3215 18.0078 16.2053 18.0056C16.0891 18.0034 15.9745 17.9777 15.8685 17.9302C15.7624 17.8827 15.667 17.8143 15.588 17.729L13.554 15.7C13.5174 15.6636 13.4752 15.6332 13.429 15.61L12.849 15.03C12.7574 14.9384 12.6331 14.8869 12.5035 14.8869C12.3739 14.8869 12.2496 14.9384 12.158 15.03C12.0664 15.1217 12.0149 15.2459 12.0149 15.3755C12.0149 15.5051 12.0664 15.6294 12.158 15.721L14.878 18.441C14.9633 18.52 15.0317 18.6154 15.0792 18.7215C15.1267 18.8276 15.1523 18.9421 15.1545 19.0583C15.1567 19.1745 15.1355 19.29 15.092 19.3978C15.0486 19.5056 14.9838 19.6035 14.9016 19.6857C14.8195 19.7678 14.7215 19.8326 14.6137 19.8761C14.506 19.9195 14.3905 19.9408 14.2743 19.9386C14.1581 19.9364 14.0435 19.9107 13.9375 19.8632C13.8314 19.8157 13.736 19.7473 13.657 19.662L12.622 18.627C12.7289 18.3481 12.7664 18.0474 12.7311 17.7508C12.6959 17.4542 12.589 17.1706 12.4197 16.9245C12.2504 16.6785 12.0238 16.4773 11.7594 16.3383C11.4949 16.1994 11.2007 16.1269 10.902 16.127H10.828C10.8383 15.8793 10.7983 15.6321 10.7105 15.4003C10.6228 15.1685 10.489 14.9568 10.3173 14.778C10.1456 14.5991 9.93949 14.4569 9.71139 14.3598C9.48329 14.2628 9.23791 14.2128 8.99001 14.213H8.91601C8.92612 13.9655 8.88608 13.7185 8.79832 13.4868C8.71055 13.2552 8.57685 13.0437 8.40527 12.865C8.23368 12.6863 8.02775 12.5441 7.79984 12.447C7.57192 12.35 7.32674 12.3 7.07901 12.3H7.00001C7.01313 11.9315 6.91514 11.5675 6.71876 11.2553C6.52238 10.9432 6.23669 10.6973 5.89877 10.5496C5.56086 10.4018 5.18634 10.3591 4.82384 10.427C4.46135 10.4948 4.12762 10.6701 3.86601 10.93L3.02401 11.772C2.92023 11.8758 2.82925 11.9916 2.75301 12.117C1.60654 10.8947 0.972593 9.27923 0.981817 7.60343C0.991041 5.92762 1.64273 4.31919 2.80259 3.10959C3.96245 1.89999 5.5421 1.18137 7.21605 1.10183C8.88999 1.02228 10.5307 1.58786 11.8 2.68203L8.80001 5.68203C8.43456 6.08098 8.23718 6.60559 8.24903 7.1465C8.26088 7.6874 8.48104 8.20286 8.86361 8.58543C9.24617 8.968 9.76164 9.18816 10.3025 9.2C10.8434 9.21185 11.3681 9.01448 11.767 8.64903L13.1 7.32003H14.821C14.9621 7.31974 15.103 7.31073 15.243 7.29303L20.634 12.684C20.7951 12.8466 20.8853 13.0663 20.8847 13.2951C20.8842 13.524 20.7929 13.7433 20.631 13.905H20.63Z" fill="white"/>
</svg>
