<svg xmlns="http://www.w3.org/2000/svg" viewBox="0 0 67.6 119.31"><defs><style>.cls-a,.cls-b{fill:none;stroke-linecap:round;stroke-miterlimit:10;stroke-width:2px;}.cls-a{stroke:#673ab7;}.cls-b{stroke:#323233;}</style></defs><title>eth-compatibility</title><g id="Layer_2" data-name="Layer 2"><g id="Features"><g id="_Group_" data-name="&lt;Group&gt;"><path id="_Path_" data-name="&lt;Path&gt;" class="cls-a" d="M33.8,117.87,65.43,69.8a.41.41,0,0,0-.58-.57l-31,21.15"></path></g><g id="_Group_2" data-name="&lt;Group&gt;"><path id="_Path_2" data-name="&lt;Path&gt;" class="cls-a" d="M33.8,117.87,2.16,69.8a.42.42,0,0,1,.59-.57L33.8,90.38"></path></g><path id="_Path_3" data-name="&lt;Path&gt;" class="cls-b" d="M33.8,40.45,1.75,55a.46.46,0,0,0-.07.8L33.8,77.43"></path><path id="_Path_4" data-name="&lt;Path&gt;" class="cls-b" d="M33.8,40.45,66,55a.39.39,0,0,1,0,.68L33.8,77.49"></path><line class="cls-a" x1="33.47" y1="97.31" x2="33.47" y2="118.31"></line><line class="cls-b" x1="33.47" y1="1.31" x2="33.47" y2="67.31"></line><path id="_Path_5" data-name="&lt;Path&gt;" class="cls-b" d="M33.8,1.08A.08.08,0,0,1,34,1L66.6,55.33"></path><path id="_Path_6" data-name="&lt;Path&gt;" class="cls-b" d="M33.8,1.08a.09.09,0,0,0-.16,0L1,55.33"></path></g></g></svg>