<svg width="741" height="335" viewBox="0 0 741 335" fill="none" xmlns="http://www.w3.org/2000/svg">
<path opacity="0.4" d="M197.124 165.637C197.124 166.91 196.134 167.901 194.862 167.901C193.591 167.901 192.601 166.91 192.601 165.637C192.601 164.364 193.591 163.374 194.862 163.374C196.134 163.374 197.124 164.364 197.124 165.637Z" fill="#172F78"/>
<path opacity="0.6" d="M64.1446 81.6188C64.1446 83.4576 62.7314 84.8721 60.8943 84.8721C59.0571 84.8721 57.644 83.4576 57.644 81.6188C57.644 79.7801 59.0571 78.3656 60.8943 78.3656C62.7314 78.3656 64.1446 79.7801 64.1446 81.6188Z" fill="#172F78"/>
<path opacity="0.8" d="M62.1661 81.6189C62.1661 82.3261 61.6008 83.0334 60.7529 83.0334C59.905 83.0334 59.3398 82.4676 59.3398 81.6189C59.3398 80.9117 59.905 80.2045 60.7529 80.2045C61.6008 80.2045 62.1661 80.9117 62.1661 81.6189Z" fill="#172F78"/>
<path opacity="0.4" d="M229.626 132.539C229.626 137.49 225.669 141.45 220.723 141.45C215.777 141.45 211.82 137.49 211.82 132.539C211.82 127.589 215.777 123.628 220.723 123.628C225.669 123.77 229.626 127.73 229.626 132.539Z" fill="#172F78"/>
<path opacity="0.8" d="M220.723 136.217C222.753 136.217 224.398 134.57 224.398 132.539C224.398 130.508 222.753 128.862 220.723 128.862C218.694 128.862 217.049 130.508 217.049 132.539C217.049 134.57 218.694 136.217 220.723 136.217Z" fill="#172F78"/>
<path d="M240.225 196.755L220.299 132.115L384.227 155.17L384.085 155.878L221.289 133.105L240.932 196.473L240.225 196.755Z" fill="#172F78"/>
<path d="M418.849 217.831H418.143V232.824H418.849V217.831Z" fill="#172F78"/>
<path d="M418.849 236.219H418.143V241.028H418.849V236.219Z" fill="#03A7D3"/>
<path d="M53.5458 206.657H52.8392V221.65H53.5458V206.657Z" fill="#03A7D3"/>
<path d="M53.5458 224.903H52.8392V229.147H53.5458V224.903Z" fill="#172F78"/>
<path d="M53.5458 232.824H52.8392V237.067H53.5458V232.824Z" fill="#172F78"/>
<path d="M155.859 21.3631H155.152V36.3563H155.859V21.3631Z" fill="#172F78"/>
<path d="M155.859 39.751H155.152V43.9943H155.859V39.751Z" fill="#03A7D3"/>
<path d="M155.859 47.5305H155.152V51.7739H155.859V47.5305Z" fill="#03A7D3"/>
<path d="M155.859 55.4515H155.152V67.6159H155.859V55.4515Z" fill="#03A7D3"/>
<path d="M326.287 298.738H325.58V313.872H326.287V298.738Z" fill="#172F78"/>
<path opacity="0.4" d="M77.8522 75.8197C82.457 75.8197 86.1899 72.0834 86.1899 67.4744C86.1899 62.8654 82.457 59.1291 77.8522 59.1291C73.2475 59.1291 69.5146 62.8654 69.5146 67.4744C69.5146 72.0834 73.2475 75.8197 77.8522 75.8197Z" fill="#03A7D3"/>
<path opacity="0.8" d="M77.8523 71.5763C80.1156 71.5763 81.9504 69.7398 81.9504 67.4744C81.9504 65.2089 80.1156 63.3724 77.8523 63.3724C75.5889 63.3724 73.7541 65.2089 73.7541 67.4744C73.7541 69.7398 75.5889 71.5763 77.8523 71.5763Z" fill="#03A7D3"/>
<path opacity="0.4" d="M139.042 311.326C139.042 314.438 136.499 316.984 133.39 316.984C130.281 316.984 127.737 314.438 127.737 311.326C127.737 308.215 130.281 305.669 133.39 305.669C136.64 305.669 139.042 308.215 139.042 311.326Z" fill="#03A7D3"/>
<path opacity="0.8" d="M133.531 314.014C135.014 314.014 136.216 312.811 136.216 311.326C136.216 309.842 135.014 308.639 133.531 308.639C132.048 308.639 130.846 309.842 130.846 311.326C130.846 312.811 132.048 314.014 133.531 314.014Z" fill="#03A7D3"/>
<path opacity="0.4" d="M338.44 249.939C341.64 249.939 344.234 247.343 344.234 244.14C344.234 240.937 341.64 238.341 338.44 238.341C335.24 238.341 332.646 240.937 332.646 244.14C332.646 247.343 335.24 249.939 338.44 249.939Z" fill="#03A7D3"/>
<path opacity="0.8" d="M338.44 246.969C340.001 246.969 341.267 245.702 341.267 244.14C341.267 242.577 340.001 241.311 338.44 241.311C336.879 241.311 335.614 242.577 335.614 244.14C335.614 245.702 336.879 246.969 338.44 246.969Z" fill="#03A7D3"/>
<path opacity="0.4" d="M355.963 304.537C357.29 304.537 358.366 303.46 358.366 302.132C358.366 300.804 357.29 299.728 355.963 299.728C354.637 299.728 353.561 300.804 353.561 302.132C353.561 303.46 354.637 304.537 355.963 304.537Z" fill="#03A7D3"/>
<path opacity="0.4" d="M338.581 167.052C338.581 167.759 338.016 168.466 337.168 168.466C336.462 168.466 335.755 167.901 335.755 167.052C335.755 166.345 336.32 165.638 337.168 165.638C338.016 165.779 338.581 166.345 338.581 167.052Z" fill="#03A7D3"/>
<path opacity="0.4" d="M152.044 277.379C152.044 278.087 151.478 278.794 150.63 278.794C149.924 278.794 149.217 278.228 149.217 277.379C149.217 276.672 149.782 275.965 150.63 275.965C151.337 275.965 152.044 276.672 152.044 277.379Z" fill="#03A7D3"/>
<path d="M235.279 235.653C232.453 235.653 229.768 235.087 227.648 233.814L176.067 203.969C173.948 202.696 172.817 200.999 172.817 199.301C172.817 197.463 173.948 195.765 176.067 194.634L227.365 164.789C231.605 162.384 238.529 162.384 242.769 164.789L294.349 194.634C296.469 195.907 297.6 197.604 297.6 199.301C297.6 201.14 296.469 202.838 294.349 203.969L243.051 233.814C240.932 234.946 238.105 235.653 235.279 235.653ZM234.996 163.799C232.453 163.799 229.768 164.364 227.789 165.496L176.633 195.341C174.795 196.331 173.806 197.746 173.806 199.16C173.806 200.575 174.795 201.989 176.633 202.979L228.213 232.824C232.17 235.087 238.671 235.087 242.628 232.824L293.925 202.979C295.763 201.989 296.752 200.575 296.752 199.16C296.752 197.746 295.763 196.331 293.925 195.341L242.345 165.496C240.225 164.364 237.681 163.799 234.996 163.799Z" fill="#03A7D3"/>
<path d="M297.317 182.894V158.141L266.086 162.243L242.769 148.664C238.671 146.259 232.029 146.259 227.931 148.664L224.256 150.927L173.524 157.716V182.752V182.894C173.524 184.45 174.654 185.864 176.633 186.996L228.213 216.841C232.311 219.245 238.953 219.245 243.051 216.841L294.349 186.996C296.328 185.864 297.317 184.308 297.458 182.894H297.317Z" fill="url(#paint0_linear)"/>
<path d="M294.349 153.756L242.769 123.911C238.671 121.506 232.029 121.506 227.931 123.911L176.633 153.756C172.534 156.161 172.534 159.98 176.633 162.384L228.213 192.229C232.311 194.634 238.953 194.634 243.051 192.229L294.349 162.384C298.448 159.98 298.448 156.019 294.349 153.756Z" fill="url(#paint1_radial)"/>
<path d="M294.349 160.828L243.051 190.673C238.953 193.078 232.311 193.078 228.213 190.673L176.633 160.828C174.937 159.838 173.948 158.565 173.665 157.292C173.241 159.131 174.23 160.97 176.633 162.384L228.213 192.229C232.311 194.634 238.953 194.634 243.051 192.229L294.349 162.384C296.752 160.97 297.741 159.131 297.317 157.292C297.034 158.565 296.045 159.838 294.349 160.828Z" fill="white"/>
<path d="M249.976 198.736L247.432 200.15V197.321L249.976 195.907V198.736Z" fill="white"/>
<path d="M255.063 195.765L252.661 197.18V194.351L255.063 192.936V195.765Z" fill="white"/>
<path d="M260.151 192.795L257.748 194.209V191.381L260.151 189.966V192.795Z" fill="white"/>
<path d="M255.911 200.999L253.509 202.413V199.584L255.911 198.17V200.999Z" fill="white"/>
<path d="M260.433 198.311L258.031 199.726V196.897L260.433 195.482V198.311Z" fill="white"/>
<path d="M276.544 183.318L274.141 184.733V181.904L276.544 180.489V183.318Z" fill="white"/>
<path d="M290.534 175.256L288.131 176.67V173.841L290.534 172.427V175.256Z" fill="white"/>
<path d="M265.238 189.825L262.836 191.239V188.41L265.238 186.996V189.825Z" fill="white"/>
<path opacity="0.4" d="M232.453 179.499L197.83 159.555C196.417 158.707 196.558 157.292 198.254 156.444L232.17 136.924C233.866 135.934 236.268 135.934 237.681 136.641L272.304 156.726C273.717 157.575 273.576 158.99 271.88 159.838L237.964 179.358C236.41 180.206 233.866 180.348 232.453 179.499Z" fill="#06033E"/>
<path d="M218.886 201.282L190.199 184.733C189.492 184.308 188.927 183.318 188.927 182.328V180.206C188.927 179.358 189.492 178.933 190.199 179.216L218.886 195.765C219.593 196.19 220.158 197.18 220.158 198.17V200.292C220.158 201.282 219.593 201.706 218.886 201.282Z" fill="white"/>
<path d="M297.317 136.5V111.747L266.086 115.849L242.769 102.27C238.671 99.8653 232.029 99.8653 227.931 102.27L224.256 104.533L173.524 111.322V136.358V136.5C173.524 138.056 174.654 139.47 176.633 140.602L228.213 170.447C232.311 172.851 238.953 172.851 243.051 170.447L294.349 140.602C296.328 139.47 297.317 137.914 297.458 136.5H297.317Z" fill="url(#paint2_linear)"/>
<path d="M294.349 107.22L242.769 77.3755C238.671 74.9709 232.029 74.9709 227.931 77.3755L176.633 107.362C172.534 109.766 172.534 113.586 176.633 115.99L228.213 145.835C232.311 148.24 238.953 148.24 243.051 145.835L294.349 115.99C298.448 113.444 298.448 109.625 294.349 107.22Z" fill="url(#paint3_radial)"/>
<path opacity="0.4" d="M269.76 109.059L239.66 91.6614C237.257 90.247 233.442 90.247 231.04 91.6614L201.222 109.059C198.819 110.474 198.819 112.737 201.222 114.01L231.322 131.408C233.725 132.822 237.54 132.822 239.943 131.408L269.76 114.151C272.163 112.737 272.163 110.474 269.76 109.059Z" fill="#06033E"/>
<path d="M294.349 114.434L243.051 144.279C238.953 146.684 232.311 146.684 228.213 144.279L176.633 114.434C174.937 113.444 173.948 112.171 173.665 110.898C173.241 112.737 174.23 114.576 176.633 115.99L228.213 145.835C232.311 148.24 238.953 148.24 243.051 145.835L294.349 115.99C296.752 114.576 297.741 112.737 297.317 110.898C297.034 112.171 296.045 113.444 294.349 114.434Z" fill="white"/>
<path d="M249.976 152.342L247.432 153.756V150.927L249.976 149.513V152.342Z" fill="white"/>
<path d="M255.063 149.371L252.661 150.786V147.957L255.063 146.542V149.371Z" fill="white"/>
<path d="M260.151 146.401L257.748 147.815V144.986L260.151 143.572V146.401Z" fill="white"/>
<path d="M255.911 154.605L253.509 156.019V153.19L255.911 151.776V154.605Z" fill="white"/>
<path d="M260.433 151.917L258.031 153.332V150.503L260.433 149.088V151.917Z" fill="white"/>
<path d="M276.544 136.924L274.141 138.338V135.51L276.544 134.095V136.924Z" fill="white"/>
<path d="M290.534 128.862L288.131 130.276V127.447L290.534 126.033V128.862Z" fill="white"/>
<path d="M265.238 143.431L262.836 144.845V142.016L265.238 140.602V143.431Z" fill="white"/>
<path d="M297.317 90.1056V65.3526L266.086 69.4545L242.769 55.8758C238.671 53.4712 232.029 53.4712 227.931 55.8758L224.256 58.1389L173.524 64.9283V90.1056V90.247C173.524 91.8029 174.654 93.2174 176.633 94.3489L228.213 124.194C232.311 126.599 238.953 126.599 243.051 124.194L294.349 94.3489C296.328 93.2174 297.317 91.6615 297.458 90.247V90.1056H297.317Z" fill="url(#paint4_linear)"/>
<path d="M294.349 60.8263L242.768 30.9813C238.67 28.5768 232.028 28.5768 227.93 30.9813L176.632 60.9678C172.534 63.3724 172.534 67.1914 176.632 69.596L228.213 99.441C232.311 101.846 238.953 101.846 243.051 99.441L294.349 69.596C298.447 67.0499 298.447 63.2309 294.349 60.8263Z" fill="url(#paint5_radial)"/>
<path d="M294.349 67.8987L243.051 97.7437C238.953 100.148 232.311 100.148 228.213 97.7437L176.633 68.0402C174.937 67.05 173.948 65.777 173.665 64.504C173.241 66.3428 174.23 68.1816 176.633 69.5961L228.213 99.4411C232.311 101.846 238.953 101.846 243.051 99.4411L294.349 69.5961C296.752 68.1816 297.741 66.3428 297.317 64.504C297.034 65.777 296.045 66.9086 294.349 67.8987Z" fill="white"/>
<path d="M249.976 105.948L247.432 107.362V104.533L249.976 103.119V105.948Z" fill="white"/>
<path d="M255.063 102.977L252.661 104.392V101.563L255.063 100.148V102.977Z" fill="white"/>
<path d="M260.151 100.007L257.748 101.421V98.5924L260.151 97.1779V100.007Z" fill="white"/>
<path d="M255.911 108.069L253.509 109.484V106.796L255.911 105.382V108.069Z" fill="white"/>
<path d="M260.433 105.523L258.031 106.938V104.109L260.433 102.694V105.523Z" fill="white"/>
<path d="M276.544 90.5299L274.141 91.9444V89.1154L276.544 87.701V90.5299Z" fill="white"/>
<path d="M290.534 82.4676L288.131 83.882V81.0531L290.534 79.6387V82.4676Z" fill="white"/>
<path d="M265.238 97.0365L262.836 98.4509V95.622L265.238 94.2076V97.0365Z" fill="white"/>
<path d="M144.13 288.412C141.303 288.412 138.618 287.846 136.499 286.573L84.9181 256.729C82.7983 255.455 81.6678 253.758 81.6678 252.061C81.6678 250.222 82.7983 248.525 84.9181 247.393L136.216 217.548C140.456 215.144 147.38 215.144 151.62 217.548L203.2 247.393C205.32 248.666 206.45 250.363 206.45 252.061C206.45 253.9 205.32 255.597 203.2 256.729L151.902 286.573C149.641 287.846 146.956 288.412 144.13 288.412ZM143.847 216.558C141.303 216.558 138.618 217.124 136.64 218.255L85.342 248.1C83.5049 249.09 82.5157 250.505 82.5157 251.919C82.5157 253.334 83.5049 254.748 85.342 255.738L136.923 285.583C140.879 287.847 147.38 287.847 151.337 285.583L202.635 255.738C204.472 254.748 205.461 253.334 205.461 251.919C205.461 250.505 204.472 249.09 202.635 248.1L151.054 218.255C149.076 217.265 146.532 216.558 143.847 216.558Z" fill="#03A7D3"/>
<path d="M206.168 235.794V211.042L174.937 215.143L151.62 201.565C147.521 199.16 140.88 199.16 136.781 201.565L133.107 203.828L82.3744 210.617V235.794V235.936C82.3744 237.492 83.5049 238.906 85.4834 240.038L137.064 269.883C141.162 272.287 147.804 272.287 151.902 269.883L203.2 240.038C205.179 238.906 206.168 237.35 206.309 235.936V235.794H206.168Z" fill="url(#paint6_linear)"/>
<path d="M203.059 206.515L151.478 176.67C147.38 174.266 140.738 174.266 136.64 176.67L85.3421 206.515C81.2439 208.92 81.2439 212.739 85.3421 215.143L136.923 244.989C141.021 247.393 147.663 247.393 151.761 244.989L203.059 215.143C207.157 212.739 207.157 208.92 203.059 206.515Z" fill="url(#paint7_radial)"/>
<path d="M203.059 213.588L151.761 243.433C147.663 245.837 141.021 245.837 136.923 243.433L85.342 213.588C83.6462 212.597 82.657 211.324 82.3744 210.051C81.9504 211.89 82.9397 213.729 85.342 215.143L136.923 244.988C141.021 247.393 147.663 247.393 151.761 244.988L203.059 215.143C205.461 213.729 206.45 211.89 206.026 210.051C205.744 211.324 204.755 212.597 203.059 213.588Z" fill="white"/>
<path d="M158.685 251.495L156.283 252.909V250.081L158.685 248.666V251.495Z" fill="white"/>
<path d="M163.914 248.525L161.37 249.939V247.11L163.914 245.837V248.525Z" fill="white"/>
<path d="M169.001 245.696L166.458 247.11V244.281L169.001 242.867V245.696Z" fill="white"/>
<path d="M164.762 253.758L162.36 255.173V252.344L164.762 250.929V253.758Z" fill="white"/>
<path d="M169.284 251.212L166.882 252.627V249.798L169.284 248.383V251.212Z" fill="white"/>
<path d="M185.394 236.219L182.851 237.633V234.804L185.394 233.39V236.219Z" fill="white"/>
<path d="M199.385 228.015L196.982 229.43V226.601L199.385 225.186V228.015Z" fill="white"/>
<path d="M174.089 242.725L171.687 244.14V241.311L174.089 239.896V242.725Z" fill="white"/>
<path opacity="0.4" d="M141.303 232.4L106.681 212.315C105.268 211.466 105.409 210.051 107.105 209.203L141.021 189.683C142.717 188.693 145.119 188.693 146.532 189.4L181.155 209.486C182.568 210.334 182.427 211.749 180.731 212.597L146.815 232.117C145.26 233.107 142.717 233.107 141.303 232.4Z" fill="#06033E"/>
<path d="M127.737 254.041L99.0497 237.492C98.3432 237.067 97.7779 236.077 97.7779 235.087V232.966C97.7779 232.117 98.3432 231.693 99.0497 231.975L127.737 248.525C128.444 248.949 129.009 249.939 129.009 250.929V253.051C128.868 254.041 128.302 254.465 127.737 254.041Z" fill="white"/>
<path d="M206.168 189.259V164.506L174.937 168.608L151.62 155.029C147.521 152.625 140.88 152.625 136.781 155.029L133.107 157.292L82.3744 164.082V189.118V189.259C82.3744 190.815 83.5049 192.229 85.4834 193.361L137.064 223.206C141.162 225.61 147.804 225.61 151.902 223.206L203.2 193.361C205.179 192.229 206.168 190.673 206.309 189.259H206.168Z" fill="url(#paint8_linear)"/>
<path d="M203.059 160.121L151.478 130.276C147.38 127.872 140.738 127.872 136.64 130.276L85.3421 160.121C81.2439 162.526 81.2439 166.345 85.3421 168.749L136.923 198.594C141.021 200.999 147.663 200.999 151.761 198.594L203.059 168.749C207.157 166.345 207.157 162.526 203.059 160.121Z" fill="url(#paint9_radial)"/>
<path opacity="0.4" d="M178.47 161.96L148.369 144.562C145.967 143.148 142.151 143.148 139.749 144.562L109.931 161.96C107.529 163.374 107.529 165.638 109.931 166.911L140.032 184.308C142.434 185.723 146.25 185.723 148.652 184.308L178.47 166.911C180.872 165.496 180.872 163.233 178.47 161.96Z" fill="#06033E"/>
<path d="M203.059 167.193L151.761 197.038C147.663 199.443 141.021 199.443 136.923 197.038L85.342 167.193C83.6462 166.203 82.657 164.93 82.3744 163.657C81.9504 165.496 82.9397 167.335 85.342 168.749L136.923 198.594C141.021 200.999 147.663 200.999 151.761 198.594L203.059 168.749C205.461 167.335 206.45 165.496 206.026 163.657C205.744 164.93 204.755 166.203 203.059 167.193Z" fill="white"/>
<path d="M158.685 205.101L156.283 206.515V203.686L158.685 202.272V205.101Z" fill="white"/>
<path d="M163.914 202.131L161.37 203.545V200.716L163.914 199.302V202.131Z" fill="white"/>
<path d="M169.001 199.16L166.458 200.575V197.887L169.001 196.473V199.16Z" fill="white"/>
<path d="M164.762 207.364L162.36 208.778V205.95L164.762 204.535V207.364Z" fill="white"/>
<path d="M169.284 204.818L166.882 206.232V203.404L169.284 201.989V204.818Z" fill="white"/>
<path d="M185.394 189.825L182.851 191.239V188.41L185.394 186.996V189.825Z" fill="white"/>
<path d="M199.385 181.621L196.982 183.035V180.206L199.385 178.792V181.621Z" fill="white"/>
<path d="M174.089 196.331L171.687 197.746V194.917L174.089 193.502V196.331Z" fill="white"/>
<path d="M206.168 142.865V118.112L174.937 122.214L151.62 108.635C147.521 106.23 140.88 106.23 136.781 108.635L133.107 110.898L82.3744 117.687V142.723V142.865C82.3744 144.421 83.5049 145.835 85.4834 146.967L137.064 176.812C141.162 179.216 147.804 179.216 151.902 176.812L203.2 146.967C205.179 145.835 206.168 144.279 206.309 142.865H206.168Z" fill="url(#paint10_linear)"/>
<path d="M203.059 113.727L151.478 83.882C147.38 81.4775 140.738 81.4775 136.64 83.882L85.3421 113.727C81.2439 116.132 81.2439 119.951 85.3421 122.355L136.923 152.2C141.021 154.605 147.663 154.605 151.761 152.2L203.059 122.355C207.157 119.951 207.157 115.99 203.059 113.727Z" fill="url(#paint11_radial)"/>
<path d="M203.059 113.727L151.478 83.882C147.38 81.4775 140.738 81.4775 136.64 83.882L85.3421 113.727C81.2439 116.132 81.2439 119.951 85.3421 122.355L136.923 152.2C141.021 154.605 147.663 154.605 151.761 152.2L203.059 122.355C207.157 119.951 207.157 115.99 203.059 113.727Z" fill="url(#paint12_radial)"/>
<path d="M144.271 142.441C142.434 142.441 140.456 142.016 139.042 141.168L104.844 121.365C103.289 120.516 102.441 119.243 102.441 117.97C102.441 116.697 103.289 115.424 104.844 114.576L138.76 94.7734C141.727 93.076 146.391 93.076 149.217 94.7734L183.416 114.576C184.97 115.424 185.818 116.697 185.818 117.97C185.818 119.243 184.97 120.516 183.416 121.365L149.5 141.168C148.087 142.016 146.25 142.441 144.271 142.441ZM144.13 94.9148C142.434 94.9148 140.738 95.3391 139.608 96.0464L105.692 115.849C104.561 116.415 103.996 117.263 103.996 118.112C103.996 118.961 104.561 119.809 105.692 120.375L139.89 140.177C142.434 141.592 146.532 141.592 149.076 140.177L182.992 120.375C184.122 119.809 184.688 118.961 184.688 118.112C184.688 117.263 184.122 116.415 182.992 115.849L148.793 96.0464C147.521 95.1977 145.826 94.9148 144.13 94.9148Z" fill="#8B1E64"/>
<path d="M203.059 120.799L151.761 150.644C147.663 153.049 141.021 153.049 136.923 150.644L85.342 120.799C83.6462 119.809 82.657 118.536 82.3744 117.263C81.9504 119.102 82.9397 120.941 85.342 122.355L136.923 152.2C141.021 154.605 147.663 154.605 151.761 152.2L203.059 122.355C205.461 120.941 206.45 119.102 206.026 117.263C205.744 118.536 204.755 119.809 203.059 120.799Z" fill="white"/>
<path d="M158.685 158.707L156.283 160.121V157.292L158.685 155.878V158.707Z" fill="white"/>
<path d="M163.914 155.736L161.37 157.151V154.322L163.914 152.907V155.736Z" fill="white"/>
<path d="M169.001 152.766L166.458 154.18V151.351L169.001 149.937V152.766Z" fill="white"/>
<path d="M164.762 160.97L162.36 162.384V159.555L164.762 158.141V160.97Z" fill="white"/>
<path d="M169.284 158.282L166.882 159.697V156.868L169.284 155.595V158.282Z" fill="white"/>
<path d="M185.394 143.289L182.851 144.704V141.875L185.394 140.602V143.289Z" fill="white"/>
<path d="M199.385 135.227L196.982 136.641V133.812L199.385 132.398V135.227Z" fill="white"/>
<path d="M174.089 149.796L171.687 151.21V148.523L174.089 147.108V149.796Z" fill="white"/>
<path d="M326.146 288.271C323.319 288.271 320.634 287.705 318.515 286.432L266.934 256.587C264.814 255.314 263.684 253.617 263.684 251.919C263.684 250.08 264.814 248.383 266.934 247.252L318.232 217.407C322.471 215.002 329.396 215.002 333.635 217.407L385.216 247.252C387.336 248.525 388.466 250.222 388.466 251.919C388.466 253.758 387.336 255.455 385.216 256.587L333.918 286.432C331.798 287.705 328.972 288.271 326.146 288.271ZM325.863 216.558C323.319 216.558 320.634 217.124 318.656 218.255L267.358 248.1C265.521 249.09 264.532 250.505 264.532 251.919C264.532 253.334 265.521 254.748 267.358 255.738L318.938 285.583C322.895 287.846 329.396 287.846 333.353 285.583L384.651 255.738C386.488 254.748 387.477 253.334 387.477 251.919C387.477 250.505 386.488 249.09 384.651 248.1L333.07 218.255C331.092 217.124 328.548 216.558 325.863 216.558Z" fill="#03A7D3"/>
<path d="M388.184 235.653V210.9L356.953 215.002L333.635 201.423C329.537 199.019 322.895 199.019 318.797 201.423L315.123 203.686L264.39 210.476V235.512V235.653C264.39 237.209 265.521 238.623 267.499 239.755L319.08 269.6C323.178 272.005 329.82 272.005 333.918 269.6L385.216 239.755C387.194 238.623 388.184 237.068 388.325 235.653H388.184Z" fill="url(#paint13_linear)"/>
<path d="M385.075 206.515L333.494 176.67C329.396 174.266 322.754 174.266 318.656 176.67L267.358 206.515C263.26 208.92 263.26 212.739 267.358 215.143L318.938 244.988C323.037 247.393 329.679 247.393 333.777 244.988L385.075 215.143C389.173 212.739 389.173 208.778 385.075 206.515Z" fill="url(#paint14_radial)"/>
<path d="M385.075 213.587L333.777 243.432C329.679 245.837 323.037 245.837 318.938 243.432L267.358 213.587C265.662 212.597 264.673 211.324 264.39 210.051C263.966 211.89 264.956 213.729 267.358 215.143L318.938 244.988C323.037 247.393 329.679 247.393 333.777 244.988L385.075 215.143C387.477 213.729 388.466 211.89 388.042 210.051C387.901 211.324 386.912 212.597 385.075 213.587Z" fill="white"/>
<path d="M340.843 251.495L338.299 252.909V250.08L340.843 248.666V251.495Z" fill="white"/>
<path d="M345.93 248.525L343.386 249.939V247.11L345.93 245.696V248.525Z" fill="white"/>
<path d="M351.017 245.554L348.615 246.969V244.14L351.017 242.725V245.554Z" fill="white"/>
<path d="M346.778 253.758L344.376 255.172V252.344L346.778 250.929V253.758Z" fill="white"/>
<path d="M351.3 251.071L348.898 252.485V249.656L351.3 248.242V251.071Z" fill="white"/>
<path d="M367.41 236.077L364.866 237.492V234.663L367.41 233.248V236.077Z" fill="white"/>
<path d="M381.4 228.015L378.998 229.429V226.6L381.4 225.186V228.015Z" fill="white"/>
<path d="M356.105 242.584L353.702 243.998V241.169L356.105 239.755V242.584Z" fill="white"/>
<path opacity="0.4" d="M323.319 232.258L288.697 212.173C287.284 211.324 287.425 209.91 289.121 209.061L323.037 189.542C324.732 188.552 327.135 188.552 328.548 189.259L363.171 209.344C364.584 210.193 364.442 211.607 362.747 212.456L328.831 231.975C327.276 232.966 324.732 233.107 323.319 232.258Z" fill="#06033E"/>
<path d="M309.753 254.041L281.066 237.492C280.359 237.067 279.794 236.077 279.794 235.087V232.966C279.794 232.117 280.359 231.693 281.066 231.975L309.753 248.525C310.46 248.949 311.025 249.939 311.025 250.929V253.051C311.025 254.041 310.46 254.324 309.753 254.041Z" fill="white"/>
<path d="M388.184 189.259V164.506L356.953 168.608L333.635 155.029C329.537 152.625 322.895 152.625 318.797 155.029L315.123 157.292L264.39 164.082V189.117V189.259C264.39 190.815 265.521 192.229 267.499 193.361L319.08 223.206C323.178 225.61 329.82 225.61 333.918 223.206L385.216 193.361C387.194 192.229 388.184 190.673 388.325 189.259H388.184Z" fill="url(#paint15_linear)"/>
<path d="M385.075 159.98L333.494 130.135C329.396 127.73 322.754 127.73 318.656 130.135L267.358 159.98C263.26 162.384 263.26 166.203 267.358 168.608L318.938 198.453C323.037 200.857 329.679 200.857 333.777 198.453L385.075 168.608C389.173 166.203 389.173 162.384 385.075 159.98Z" fill="url(#paint16_radial)"/>
<path opacity="0.4" d="M360.627 161.818L330.526 144.421C328.124 143.006 324.309 143.006 321.906 144.421L292.088 161.818C289.686 163.233 289.686 165.496 292.088 166.769L322.189 184.167C324.591 185.581 328.407 185.581 330.809 184.167L360.627 166.769C363.029 165.496 363.029 163.233 360.627 161.818Z" fill="#06033E"/>
<path d="M385.075 167.193L333.777 197.038C329.679 199.443 323.037 199.443 318.938 197.038L267.358 167.193C265.662 166.203 264.673 164.93 264.39 163.657C263.966 165.496 264.956 167.335 267.358 168.749L318.938 198.594C323.037 200.999 329.679 200.999 333.777 198.594L385.075 168.749C387.477 167.335 388.466 165.496 388.042 163.657C387.901 164.93 386.912 166.203 385.075 167.193Z" fill="white"/>
<path d="M340.843 205.101L338.299 206.515V203.686L340.843 202.272V205.101Z" fill="white"/>
<path d="M345.93 202.13L343.386 203.545V200.716L345.93 199.302V202.13Z" fill="white"/>
<path d="M351.017 199.16L348.615 200.575V197.746L351.017 196.331V199.16Z" fill="white"/>
<path d="M346.778 207.364L344.376 208.778V205.949L346.778 204.535V207.364Z" fill="white"/>
<path d="M351.3 204.676L348.898 206.091V203.262L351.3 201.848V204.676Z" fill="white"/>
<path d="M367.41 189.683L364.866 191.098V188.269L367.41 186.854V189.683Z" fill="white"/>
<path d="M381.4 181.621L378.998 183.035V180.206L381.4 178.792V181.621Z" fill="white"/>
<path d="M356.105 196.19L353.702 197.604V194.775L356.105 193.361V196.19Z" fill="white"/>
<path d="M388.184 142.865V118.112L356.953 122.214L333.635 108.635C329.537 106.23 322.895 106.23 318.797 108.635L315.123 110.898L264.39 117.687V142.723V142.865C264.39 144.421 265.521 145.835 267.499 146.967L319.08 176.812C323.178 179.216 329.82 179.216 333.918 176.812L385.216 146.967C387.194 145.835 388.184 144.279 388.325 142.865H388.184Z" fill="url(#paint17_linear)"/>
<path d="M385.075 113.585L333.494 83.7405C329.396 81.3359 322.754 81.3359 318.656 83.7405L267.358 113.585C263.26 115.99 263.26 119.809 267.358 122.214L318.938 152.059C323.037 154.463 329.679 154.463 333.777 152.059L385.075 122.214C389.173 119.809 389.173 115.99 385.075 113.585Z" fill="url(#paint18_radial)"/>
<path d="M385.075 120.658L333.777 150.503C329.679 152.907 323.037 152.907 318.938 150.503L267.358 120.658C265.662 119.668 264.673 118.395 264.39 117.122C263.966 118.96 264.956 120.799 267.358 122.214L318.938 152.059C323.037 154.463 329.679 154.463 333.777 152.059L385.075 122.214C387.477 120.799 388.466 118.96 388.042 117.122C387.901 118.536 386.912 119.668 385.075 120.658Z" fill="white"/>
<path d="M340.843 158.707L338.299 160.121V157.292L340.843 155.878V158.707Z" fill="white"/>
<path d="M345.93 155.736L343.386 157.151V154.322L345.93 152.907V155.736Z" fill="white"/>
<path d="M351.017 152.766L348.615 154.18V151.351L351.017 149.937V152.766Z" fill="white"/>
<path d="M346.778 160.828L344.376 162.243V159.414L346.778 158.141V160.828Z" fill="white"/>
<path d="M351.3 158.282L348.898 159.697V156.868L351.3 155.453V158.282Z" fill="white"/>
<path d="M367.41 143.289L364.866 144.703V141.875L367.41 140.46V143.289Z" fill="white"/>
<path d="M381.4 135.227L378.998 136.641V133.812L381.4 132.398V135.227Z" fill="white"/>
<path d="M356.105 149.795L353.702 151.21V148.381L356.105 146.967V149.795Z" fill="white"/>
<path d="M234.996 341.171C232.17 341.171 229.485 340.606 227.365 339.333L175.785 309.488C173.665 308.215 172.534 306.517 172.534 304.82C172.534 302.981 173.665 301.284 175.785 300.152L227.083 270.307C231.322 267.903 238.247 267.903 242.486 270.307L294.067 300.152C296.187 301.425 297.317 303.123 297.317 304.82C297.317 306.659 296.187 308.356 294.067 309.488L242.769 339.333C240.508 340.606 237.823 341.171 234.996 341.171ZM234.714 269.317C232.17 269.317 229.485 269.883 227.507 271.014L176.209 300.859C174.372 301.849 173.382 303.264 173.382 304.678C173.382 306.093 174.372 307.507 176.209 308.497L227.789 338.342C231.746 340.606 238.247 340.606 242.204 338.342L293.501 308.497C295.339 307.507 296.328 306.093 296.328 304.678C296.328 303.264 295.339 301.849 293.501 300.859L241.921 271.156C239.942 269.883 237.257 269.317 234.714 269.317Z" fill="#03A7D3"/>
<path opacity="0.2" d="M280.924 301.425L240.508 278.087C237.257 276.248 232.029 276.248 228.92 278.087L188.786 301.425C185.536 303.264 185.536 306.234 188.786 308.215L229.202 331.553C232.453 333.392 237.681 333.392 240.79 331.553L280.924 308.215C284.175 306.234 284.175 303.264 280.924 301.425Z" fill="#03A7D3"/>
<path d="M297.034 288.412V263.659L265.803 267.761L242.486 254.182C238.388 251.778 231.746 251.778 227.648 254.182L223.974 256.446L173.241 263.235V288.271V288.412C173.241 289.968 174.372 291.383 176.35 292.514L227.931 322.359C232.029 324.764 238.671 324.764 242.769 322.359L294.067 292.514C296.045 291.383 297.034 289.827 297.176 288.412H297.034Z" fill="url(#paint19_linear)"/>
<path d="M293.925 259.274L242.345 229.429C238.247 227.025 231.605 227.025 227.507 229.429L176.209 259.274C172.11 261.679 172.11 265.498 176.209 267.903L227.789 297.748C231.887 300.152 238.529 300.152 242.627 297.748L293.925 267.903C298.024 265.498 298.024 261.679 293.925 259.274Z" fill="url(#paint20_radial)"/>
<path d="M293.925 266.347L242.627 296.192C238.529 298.596 231.887 298.596 227.789 296.192L176.209 266.347C174.513 265.357 173.524 264.084 173.241 262.811C172.817 264.649 173.806 266.488 176.209 267.903L227.789 297.748C231.887 300.152 238.529 300.152 242.627 297.748L293.925 267.903C296.328 266.488 297.317 264.649 296.893 262.811C296.61 264.084 295.621 265.357 293.925 266.347Z" fill="white"/>
<path d="M249.552 304.254L247.15 305.669V302.84L249.552 301.425V304.254Z" fill="white"/>
<path d="M254.639 301.284L252.237 302.698V299.869L254.639 298.455V301.284Z" fill="white"/>
<path d="M259.868 298.455L257.324 299.869V297.04L259.868 295.626V298.455Z" fill="white"/>
<path d="M255.629 306.517L253.226 307.932V305.103L255.629 303.688V306.517Z" fill="white"/>
<path d="M260.151 303.971L257.748 305.386V302.557L260.151 301.142V303.971Z" fill="white"/>
<path d="M276.12 288.978L273.717 290.392V287.564L276.12 286.149V288.978Z" fill="white"/>
<path d="M290.251 280.774L287.849 282.189V279.36L290.251 277.945V280.774Z" fill="white"/>
<path d="M264.956 295.485L262.412 296.899V294.07L264.956 292.656V295.485Z" fill="white"/>
<path opacity="0.4" d="M232.17 285.159L197.547 265.074C196.134 264.225 196.276 262.811 197.971 261.962L231.887 242.442C233.583 241.452 235.986 241.452 237.399 242.16L272.021 262.245C273.434 263.093 273.293 264.508 271.597 265.357L237.681 284.876C236.127 285.866 233.583 285.866 232.17 285.159Z" fill="#06033E"/>
<path d="M218.604 306.8L189.916 290.251C189.21 289.827 188.645 288.837 188.645 287.846V285.725C188.645 284.876 189.21 284.452 189.916 284.735L218.604 301.284C219.31 301.708 219.876 302.698 219.876 303.688V305.81C219.734 306.8 219.169 307.224 218.604 306.8Z" fill="white"/>
<path d="M297.034 242.018V217.265L265.803 221.367L242.486 207.788C238.388 205.384 231.746 205.384 227.648 207.788L223.974 210.051L173.241 216.841V241.877V242.018C173.241 243.574 174.372 244.988 176.35 246.12L227.931 275.965C232.029 278.37 238.671 278.37 242.769 275.965L294.067 246.12C296.045 244.988 297.034 243.433 297.176 242.018H297.034Z" fill="url(#paint21_linear)"/>
<path d="M293.925 212.88L242.345 183.035C238.247 180.631 231.605 180.631 227.507 183.035L176.209 212.88C172.11 215.285 172.11 219.104 176.209 221.509L227.789 251.354C231.887 253.758 238.529 253.758 242.627 251.354L293.925 221.509C298.024 219.104 298.024 215.285 293.925 212.88Z" fill="url(#paint22_radial)"/>
<path opacity="0.4" d="M269.336 214.719L239.236 197.321C236.834 195.907 233.018 195.907 230.616 197.321L200.798 214.719C198.395 216.134 198.395 218.397 200.798 219.67L230.898 237.068C233.301 238.482 237.116 238.482 239.519 237.068L269.336 219.67C271.739 218.255 271.739 215.992 269.336 214.719Z" fill="#06033E"/>
<path d="M293.925 219.953L242.627 249.798C238.529 252.202 231.887 252.202 227.789 249.798L176.209 219.953C174.513 218.962 173.524 217.689 173.241 216.416C172.817 218.255 173.806 220.094 176.209 221.508L227.789 251.353C231.887 253.758 238.529 253.758 242.627 251.353L293.925 221.508C296.328 220.094 297.317 218.255 296.893 216.416C296.61 217.689 295.621 218.962 293.925 219.953Z" fill="white"/>
<path d="M249.552 257.86L247.15 259.274V256.445L249.552 255.031V257.86Z" fill="white"/>
<path d="M254.639 254.89L252.237 256.304V253.475L254.639 252.061V254.89Z" fill="white"/>
<path d="M259.868 251.919L257.324 253.334V250.505L259.868 249.09V251.919Z" fill="white"/>
<path d="M255.629 260.123L253.226 261.537V258.709L255.629 257.294V260.123Z" fill="white"/>
<path d="M260.151 257.577L257.748 258.992V256.163L260.151 254.748V257.577Z" fill="white"/>
<path d="M276.12 242.584L273.717 243.998V241.169L276.12 239.755V242.584Z" fill="white"/>
<path d="M290.251 234.38L287.849 235.794V232.966L290.251 231.551V234.38Z" fill="white"/>
<path d="M264.956 249.09L262.412 250.505V247.676L264.956 246.261V249.09Z" fill="white"/>
<path d="M297.034 195.624V170.871L265.803 174.973L242.486 161.394C238.388 158.99 231.746 158.99 227.648 161.394L223.974 163.657L173.241 170.447V195.483V195.624C173.241 197.18 174.372 198.594 176.35 199.726L227.931 229.571C232.029 231.976 238.671 231.976 242.769 229.571L294.067 199.726C296.045 198.594 297.034 197.038 297.176 195.624H297.034Z" fill="url(#paint23_linear)"/>
<path d="M293.925 166.486L242.345 136.641C238.247 134.237 231.605 134.237 227.507 136.641L176.209 166.486C172.11 168.891 172.11 172.71 176.209 175.114L227.789 204.959C231.887 207.364 238.529 207.364 242.627 204.959L293.925 174.973C298.024 172.71 298.024 168.749 293.925 166.486Z" fill="url(#paint24_radial)"/>
<path d="M293.925 173.558L242.627 203.403C238.529 205.808 231.887 205.808 227.789 203.403L176.209 173.558C174.513 172.568 173.524 171.295 173.241 170.022C172.817 171.861 173.806 173.7 176.209 175.114L227.789 204.959C231.887 207.364 238.529 207.364 242.627 204.959L293.925 174.973C296.328 173.558 297.317 171.72 296.893 169.881C296.61 171.295 295.621 172.568 293.925 173.558Z" fill="white"/>
<path d="M249.552 211.466L247.15 212.88V210.051L249.552 208.637V211.466Z" fill="white"/>
<path d="M254.639 208.495L252.237 209.91V207.081L254.639 205.667V208.495Z" fill="white"/>
<path d="M259.868 205.525L257.324 206.94V204.111L259.868 202.696V205.525Z" fill="white"/>
<path d="M255.629 213.729L253.226 215.143V212.314L255.629 210.9V213.729Z" fill="white"/>
<path d="M260.151 211.042L257.748 212.456V209.627L260.151 208.213V211.042Z" fill="white"/>
<path d="M276.12 196.048L273.717 197.463V194.634L276.12 193.219V196.048Z" fill="white"/>
<path d="M290.251 187.986L287.849 189.4V186.571L290.251 185.157V187.986Z" fill="white"/>
<path d="M264.956 202.555L262.412 203.969V201.14L264.956 199.867V202.555Z" fill="white"/>
<path d="M358.343 271.565L357.848 272.423L446.574 323.697L447.069 322.839L358.343 271.565Z" fill="#03A7D3"/>
<path d="M484.279 301.991L455.874 285.583C453.331 284.027 449.798 283.037 446.265 282.754L415.882 280.35C412.066 280.067 408.533 279.077 405.848 277.521L377.444 261.255L377.868 260.406L406.272 276.814C408.816 278.37 412.349 279.36 415.882 279.643L446.265 282.047C450.08 282.33 453.613 283.32 456.298 284.876L484.703 301.284L484.279 301.991Z" fill="#03A7D3"/>
<path d="M408.957 345.556L380.553 329.149C377.726 327.593 376.03 325.471 375.465 323.208L371.367 305.669C370.943 303.688 369.247 301.708 366.704 300.294L338.299 283.886L338.723 283.037L367.127 299.445C369.954 301.001 371.65 303.123 372.215 305.386L376.313 322.925C376.737 324.905 378.433 326.885 380.976 328.3L409.381 344.708L408.957 345.556Z" fill="#03A7D3"/>
<path d="M427.752 334.665L397.511 317.267C395.956 316.419 394.684 315.287 393.836 314.155L381.683 298.455C380.835 297.465 379.705 296.475 378.292 295.626L348.05 278.228L348.474 277.38L378.715 294.777C380.27 295.626 381.542 296.758 382.39 297.889L394.543 313.59C395.391 314.58 396.521 315.57 397.935 316.419L428.176 333.816L427.752 334.665Z" fill="#03A7D3"/>
<path d="M465.484 312.882L435.242 295.484C433.829 294.636 432.133 293.929 430.296 293.504L403.163 286.432C401.185 285.866 399.489 285.159 397.935 284.31L367.693 266.912L368.117 266.064L398.358 283.462C399.772 284.31 401.467 285.018 403.305 285.442L430.437 292.514C432.416 293.08 434.112 293.787 435.666 294.636L465.908 312.034L465.484 312.882Z" fill="#03A7D3"/>
<path d="M91.7051 259.882L0 312.79L0.494013 313.648L92.1991 260.74L91.7051 259.882Z" fill="#03A7D3"/>
<path d="M104.753 267.565L13.0477 320.473L13.5417 321.331L105.247 268.423L104.753 267.565Z" fill="#03A7D3"/>
<path d="M117.852 275.055L26.1472 327.962L26.6412 328.82L118.346 275.913L117.852 275.055Z" fill="#03A7D3"/>
<path d="M131.022 282.667L39.3171 335.575L39.8111 336.433L131.516 283.525L131.022 282.667Z" fill="#03A7D3"/>
<path opacity="0.6" d="M552.959 9.05729C572.319 3.39947 595.213 0.287674 619.66 0.429119C622.911 0.429119 626.02 0.570565 629.27 0.71201C650.75 2.69225 658.381 25.3235 645.38 35.2247C639.445 39.751 632.238 39.751 629.27 39.751C626.161 39.6095 622.911 39.4681 619.66 39.4681C595.213 39.3266 572.319 42.4384 552.959 48.0963C533.457 52.9054 532.327 32.9616 539.11 20.7973C541.371 16.6954 545.752 11.3204 552.959 9.05729Z" fill="#0991C5"/>
<path d="M547.448 49.2279C542.219 49.2279 539.393 46.9647 537.697 44.8431C533.033 38.6194 534.729 27.7281 538.686 20.6559C541.088 16.5539 545.328 11.0376 552.818 8.633C572.885 2.83374 596.06 -0.13662 619.66 0.00482533C622.911 0.00482533 626.02 0.146271 629.27 0.287716C640.01 1.27784 648.772 7.78433 651.457 16.9783C653.576 24.192 651.315 31.2643 645.663 35.5076C639.586 40.1754 632.379 40.0339 629.27 40.0339C626.161 39.8925 622.911 39.751 619.66 39.751C596.06 39.6096 573.026 42.5799 553.1 48.3792C550.981 49.0864 549.143 49.2279 547.448 49.2279ZM553.1 9.48168C545.893 11.7448 541.795 16.9783 539.534 21.0802C535.718 28.011 534.023 38.478 538.403 44.4187C541.23 48.2377 546.317 49.3693 552.818 47.8134C572.885 42.0141 595.919 39.0438 619.66 39.1852C622.911 39.1852 626.161 39.3267 629.27 39.4681C632.237 39.4681 639.303 39.4681 645.097 35.0833C650.467 30.9814 652.446 24.192 650.467 17.4026C647.924 8.49156 639.586 2.26795 629.129 1.27784C626.02 1.13639 622.769 0.994944 619.519 0.994944C596.06 0.712053 573.026 3.68241 553.1 9.48168Z" fill="#0991C5"/>
<path d="M616.41 199.726C613.866 199.726 611.323 199.16 609.344 198.029L562.427 170.871C560.449 169.74 559.459 168.184 559.459 166.628C559.459 164.93 560.59 163.516 562.427 162.384L609.203 135.085C613.018 132.822 619.378 132.822 623.193 135.085L670.252 162.243C672.23 163.375 673.219 164.93 673.219 166.486C673.219 168.184 672.089 169.598 670.252 170.73L623.476 198.029C621.497 199.16 618.954 199.726 616.41 199.726ZM616.269 134.237C613.866 134.237 611.464 134.803 609.768 135.793L562.992 163.092C561.297 164.082 560.449 165.355 560.449 166.628C560.449 167.901 561.438 169.174 562.992 170.164L610.051 197.321C613.725 199.443 619.519 199.443 623.193 197.321L669.969 170.022C671.665 169.032 672.513 167.759 672.513 166.486C672.513 165.213 671.524 163.94 669.969 162.95L622.911 135.793C620.932 134.803 618.53 134.237 616.269 134.237Z" fill="#03A7D3"/>
<path d="M673.078 151.635V129.003L644.532 132.822L623.193 120.516C619.378 118.395 613.442 118.395 609.627 120.516L606.235 122.638L559.883 128.862V151.776V151.917C559.883 153.332 560.873 154.605 562.71 155.736L609.768 182.894C613.584 185.016 619.519 185.016 623.335 182.894L670.11 155.595C672.089 154.605 673.078 153.19 673.078 151.635Z" fill="url(#paint25_linear)"/>
<path d="M670.251 125.043L623.192 97.8852C619.377 95.7635 613.441 95.7635 609.626 97.8852L562.85 125.184C559.034 127.306 559.034 130.842 562.85 132.964L609.908 160.121C613.724 162.243 619.659 162.243 623.475 160.121L670.251 132.822C674.066 130.701 674.066 127.164 670.251 125.043Z" fill="url(#paint26_radial)"/>
<path d="M670.252 131.549L623.476 158.848C619.66 160.97 613.725 160.97 609.91 158.848L562.851 131.691C561.297 130.842 560.307 129.569 560.166 128.437C559.883 130.135 560.731 131.832 562.851 133.105L609.91 160.263C613.725 162.384 619.66 162.384 623.476 160.263L670.252 132.964C672.371 131.691 673.361 129.993 672.937 128.296C672.795 129.428 671.806 130.559 670.252 131.549Z" fill="white"/>
<path d="M629.835 166.204L627.574 167.477V164.789L629.835 163.516V166.204Z" fill="white"/>
<path d="M634.499 163.375L632.237 164.789V162.101L634.499 160.828V163.375Z" fill="white"/>
<path d="M639.162 160.687L636.901 162.102V159.414L639.162 158.141V160.687Z" fill="white"/>
<path d="M635.347 168.184L633.085 169.457V166.911L635.347 165.638V168.184Z" fill="white"/>
<path d="M639.445 165.779L637.184 167.052V164.506L639.445 163.233V165.779Z" fill="white"/>
<path d="M654.142 152.059L651.881 153.332V150.786L654.142 149.513V152.059Z" fill="white"/>
<path d="M666.86 144.704L664.74 145.977V143.431L666.86 142.158V144.704Z" fill="white"/>
<path d="M643.826 158L641.564 159.273V156.727L643.826 155.454V158Z" fill="white"/>
<path opacity="0.4" d="M613.866 148.664L582.211 130.276C580.94 129.569 581.081 128.296 582.635 127.306L613.584 109.484C615.138 108.635 617.258 108.494 618.671 109.342L650.326 127.589C651.598 128.296 651.457 129.569 649.902 130.559L618.954 148.381C617.399 149.23 615.138 149.371 613.866 148.664Z" fill="#06033E"/>
<path d="M601.431 168.466L575.287 153.332C574.722 152.907 574.156 152.059 574.156 151.21V149.23C574.156 148.381 574.722 147.957 575.287 148.381L601.431 163.516C601.996 163.94 602.561 164.789 602.561 165.638V167.618C602.561 168.466 602.137 168.749 601.431 168.466Z" fill="white"/>
<path d="M673.078 109.342V86.711L644.532 90.53L623.193 78.2243C619.378 76.1026 613.442 76.1026 609.627 78.2243L606.235 80.3459L559.883 86.5695V109.484V109.625C559.883 111.04 560.873 112.313 562.71 113.444L609.768 140.602C613.584 142.723 619.519 142.723 623.335 140.602L670.11 113.303C672.089 112.171 673.078 110.898 673.078 109.342Z" fill="url(#paint27_linear)"/>
<path d="M670.251 82.6091L623.192 55.4516C619.377 53.3299 613.441 53.3299 609.626 55.4516L562.85 82.7505C559.034 84.8722 559.034 88.4084 562.85 90.53L609.908 117.688C613.724 119.809 619.659 119.809 623.475 117.688L670.251 90.3886C674.066 88.2669 674.066 84.8722 670.251 82.6091Z" fill="url(#paint28_radial)"/>
<path opacity="0.4" d="M647.924 84.3064L620.508 68.4645C618.389 67.1915 614.856 67.1915 612.595 68.4645L585.32 84.3064C583.201 85.5794 583.201 87.5597 585.32 88.8327L612.736 104.675C614.856 105.948 618.389 105.948 620.65 104.675L647.924 88.8327C650.043 87.5597 650.043 85.5794 647.924 84.3064Z" fill="#06033E"/>
<path d="M670.252 89.1156L623.476 116.415C619.66 118.536 613.725 118.536 609.91 116.415L562.851 89.2571C561.297 88.4084 560.307 87.1354 560.166 86.0038C559.883 87.7012 560.731 89.3985 562.851 90.6715L609.91 117.829C613.725 119.951 619.66 119.951 623.476 117.829L670.252 90.5301C672.371 89.2571 673.361 87.5597 672.937 85.8624C672.795 87.1354 671.806 88.2669 670.252 89.1156Z" fill="white"/>
<path d="M629.835 123.77L627.574 125.043V122.497L629.835 121.224V123.77Z" fill="white"/>
<path d="M634.499 121.082L632.237 122.355V119.809L634.499 118.536V121.082Z" fill="white"/>
<path d="M639.162 118.395L636.901 119.668V117.122L639.162 115.849V118.395Z" fill="white"/>
<path d="M635.347 125.75L633.085 127.023V124.477L635.347 123.204V125.75Z" fill="white"/>
<path d="M639.445 123.487L637.184 124.76V122.072L639.445 120.799V123.487Z" fill="white"/>
<path d="M654.142 109.767L651.881 111.04V108.494L654.142 107.221V109.767Z" fill="white"/>
<path d="M666.86 102.27L664.74 103.543V100.997L666.86 99.7241V102.27Z" fill="white"/>
<path d="M643.826 115.707L641.564 116.98V114.434L643.826 113.161V115.707Z" fill="white"/>
<path d="M673.078 66.9086V44.2773L644.532 48.0964L623.193 35.7906C619.378 33.6689 613.442 33.6689 609.627 35.7906L606.235 37.9123L559.883 44.1359V67.0501V67.1915C559.883 68.606 560.873 69.879 562.71 71.0105L609.768 98.1681C613.584 100.29 619.519 100.29 623.335 98.1681L670.11 70.8691C672.089 69.879 673.078 68.4645 673.078 66.9086Z" fill="url(#paint29_linear)"/>
<path d="M670.251 40.3168L623.192 13.0178C619.377 10.8962 613.441 10.8962 609.626 13.0178L562.85 40.3168C559.034 42.4385 559.034 45.9746 562.85 48.0963L609.908 75.2539C613.724 77.3755 619.659 77.3755 623.475 75.2539L670.251 47.9549C674.066 45.9746 674.066 42.4385 670.251 40.3168Z" fill="url(#paint30_radial)"/>
<path d="M670.251 40.3168L623.192 13.0178C619.377 10.8962 613.441 10.8962 609.626 13.0178L562.85 40.3168C559.034 42.4385 559.034 45.9746 562.85 48.0963L609.908 75.2539C613.724 77.3755 619.659 77.3755 623.475 75.2539L670.251 47.9549C674.066 45.9746 674.066 42.4385 670.251 40.3168Z" fill="url(#paint31_radial)"/>
<path d="M616.693 66.4843C614.997 66.4843 613.301 66.0599 611.888 65.3527L580.657 47.3891C579.244 46.5404 578.537 45.4089 578.537 44.2773C578.537 43.1457 579.244 42.0142 580.657 41.1655L611.605 23.0605C614.29 21.5046 618.53 21.5046 621.215 23.0605L652.446 41.0241C653.859 41.8727 654.566 43.0043 654.566 44.1359C654.566 45.2674 653.859 46.399 652.446 47.2477L621.497 65.3527C620.084 66.2014 618.388 66.4843 616.693 66.4843ZM616.551 23.0605C614.997 23.0605 613.584 23.3434 612.312 24.0506L581.364 42.1556C580.374 42.7214 579.809 43.4286 579.809 44.2773C579.809 45.126 580.374 45.8332 581.364 46.399L612.594 64.3626C614.856 65.6356 618.671 65.6356 620.932 64.3626L651.881 46.2575C652.87 45.6918 653.435 44.9845 653.435 44.1359C653.435 43.4286 652.87 42.58 651.881 42.0142L620.65 24.0506C619.519 23.4848 617.965 23.0605 616.551 23.0605Z" fill="#8B1E64"/>
<path d="M670.252 46.6819L623.476 73.9809C619.66 76.1026 613.725 76.1026 609.91 73.9809L562.851 46.8233C561.297 45.9747 560.307 44.7017 560.166 43.5701C559.883 45.2674 560.731 46.9648 562.851 48.2378L609.91 75.3953C613.725 77.517 619.66 77.517 623.476 75.3953L670.252 48.0964C672.371 46.8233 673.361 45.126 672.937 43.4286C672.795 44.7017 671.806 45.8332 670.252 46.6819Z" fill="white"/>
<path d="M629.835 81.336L627.574 82.609V80.063L629.835 78.79V81.336Z" fill="white"/>
<path d="M634.499 78.6486L632.237 79.9216V77.3756L634.499 76.1025V78.6486Z" fill="white"/>
<path d="M639.162 75.9611L636.901 77.2341V74.688L639.162 73.415V75.9611Z" fill="white"/>
<path d="M635.347 83.4577L633.085 84.7307V82.1847L635.347 80.9117V83.4577Z" fill="white"/>
<path d="M639.445 81.0531L637.184 82.3261V79.7801L639.445 78.5071V81.0531Z" fill="white"/>
<path d="M654.142 67.3329L651.881 68.606V66.0599L654.142 64.7869V67.3329Z" fill="white"/>
<path d="M666.86 59.9777L664.74 61.2507V58.7047L666.86 57.4317V59.9777Z" fill="white"/>
<path d="M643.826 73.2736L641.564 74.5466V72.0006L643.826 70.7275V73.2736Z" fill="white"/>
<path opacity="0.6" d="M624.748 129.852C621.639 129.993 618.53 129.993 615.421 129.993C590.832 129.852 568.08 126.174 549.143 120.233C530.207 115.141 529.076 135.085 535.718 147.25C540.382 156.019 546.741 158.424 549.143 159.272C568.08 165.213 590.832 168.749 615.421 169.032C618.53 169.032 621.639 169.032 624.748 168.891C647.076 167.193 652.87 145.835 642.412 135.792C639.586 133.105 634.075 129.71 624.748 129.852Z" fill="#0B84BA"/>
<g opacity="0.3">
<path opacity="0.3" d="M740.062 105.523L739.78 104.816C739.497 104.25 739.073 103.26 738.649 102.128C734.551 89.9641 722.398 79.0728 703.602 70.4446C690.601 63.0895 687.351 52.3396 686.644 48.0963C685.797 43.0042 686.786 35.9319 691.025 32.1129C694.134 29.4255 698.515 28.8597 703.885 30.557C722.822 39.3266 735.116 50.5008 739.356 62.8066C740.203 66.3427 740.91 69.0302 740.91 81.336V102.128C740.91 103.967 740.91 104.109 740.345 104.957L740.062 105.523ZM687.492 47.8134C688.199 51.9153 691.308 62.3823 704.026 69.596C722.963 78.3656 735.257 89.5398 739.356 101.846C739.638 102.553 739.78 103.119 740.062 103.684C740.062 103.401 740.062 102.977 740.062 102.128V81.1945C740.062 69.0302 739.356 66.3427 738.508 62.948C734.409 50.9252 722.256 39.8924 703.602 31.2642C698.656 29.7083 694.558 30.1327 691.59 32.6787C687.634 36.2148 686.644 43.0042 687.492 47.8134Z" fill="#03A7D3"/>
<path opacity="0.3" d="M495.019 111.181H494.171V72.1421C494.171 71.8592 494.171 71.4349 494.171 71.152C494.454 64.6455 496.856 58.2804 501.52 52.3397L501.661 52.1983C502.509 51.3496 503.781 50.0766 505.053 49.9352C506.748 49.6523 508.162 50.5009 509.433 52.3397C513.249 58.4219 512.966 76.1026 502.226 91.9445C495.867 100.29 495.584 105.099 495.019 111.181ZM505.618 50.6424C505.477 50.6424 505.335 50.6424 505.194 50.6424C504.205 50.7838 503.074 51.9154 502.368 52.6226L502.226 52.7641C497.704 58.5633 495.302 64.7869 495.16 71.0105C495.16 71.2934 495.16 71.7178 495.16 72.0007V104.533C496.008 100.714 497.563 96.7536 501.661 91.2373C512.118 75.8197 512.542 58.5633 508.868 52.6226C508.02 51.774 507.031 50.6424 505.618 50.6424Z" fill="#03A7D3"/>
</g>
<path d="M503.922 131.549C502.933 131.549 501.52 130.983 500.106 129.003C495.019 122.072 494.595 115.283 494.171 111.181V72.1419H495.019C495.019 78.0826 496.997 83.8819 500.672 89.3983C509.009 103.118 509.999 116.839 509.292 122.638C508.727 127.447 506.89 130.842 504.629 131.408C504.346 131.549 504.205 131.549 503.922 131.549ZM495.019 78.9313V111.181C495.302 115.141 495.726 121.789 500.672 128.437C501.52 129.569 502.933 130.983 504.346 130.559C506.324 129.993 507.879 126.881 508.444 122.497C509.151 116.697 508.161 103.401 499.965 89.8226C497.563 86.2865 495.867 82.6089 495.019 78.9313Z" fill="#03A7D3"/>
<path d="M617.541 169.456C616.834 169.456 616.127 169.456 615.421 169.456C591.68 169.315 568.645 165.92 549.002 159.697C546.6 158.706 540.099 156.302 535.294 147.532C531.337 140.177 529.783 129.144 534.588 123.062C536.708 120.375 540.947 117.687 549.285 119.95C568.928 126.174 591.68 129.427 615.421 129.71C618.53 129.71 621.639 129.71 624.748 129.569C624.889 129.569 625.03 129.569 625.03 129.569C634.357 129.569 639.727 132.963 642.695 135.651C647.5 140.319 649.054 147.815 646.652 154.605C643.543 163.091 635.347 168.608 624.748 169.456C622.345 169.315 619.943 169.456 617.541 169.456ZM543.632 119.809C539.958 119.809 537.131 121.082 535.294 123.487C530.772 129.286 532.327 139.894 536.142 147.108C540.806 155.736 547.024 157.999 549.426 158.989C568.928 165.213 591.821 168.466 615.562 168.749C618.671 168.749 621.78 168.749 624.889 168.608C635.205 167.9 643.119 162.526 646.087 154.322C648.489 147.815 646.935 140.743 642.271 136.217C639.445 133.529 634.075 130.276 624.889 130.276C621.78 130.417 618.671 130.417 615.562 130.417C591.821 130.276 568.786 126.881 549.143 120.658C547.024 120.092 545.187 119.809 543.632 119.809Z" fill="#03A7D3"/>
<path d="M695.123 155.17C691.308 155.17 688.199 153.756 685.938 151.069C681.698 145.835 681.557 136.358 685.655 128.579C690.319 119.809 697.526 115.99 700.211 114.434C719.713 106.089 732.572 95.3391 737.66 83.3162C738.225 82.1846 738.649 81.1945 739.073 80.6287L739.214 80.4873L740.203 80.3458L740.345 80.6287C740.627 81.6188 740.769 82.0432 740.91 86.7109V98.5923C740.769 115.566 739.779 118.678 738.508 122.638C733.279 134.944 720.278 145.835 700.635 154.18C698.656 154.888 696.819 155.17 695.123 155.17ZM739.78 81.3359C739.356 81.9017 739.073 82.609 738.508 83.5991C733.279 95.7634 720.278 106.655 700.635 115.141C697.95 116.556 690.884 120.233 686.362 128.862C682.405 136.358 682.405 145.411 686.503 150.361C688.623 152.907 692.721 155.595 700.352 153.332C719.713 144.986 732.714 134.237 737.801 122.214C739.073 118.395 740.062 115.283 740.062 98.4509V86.428C740.062 82.8918 739.921 82.0432 739.78 81.3359Z" fill="#03A7D3"/>
<path opacity="0.6" d="M684.948 360.265L632.66 330.137C629.693 328.44 627.29 323.914 627.29 319.953V220.941C627.29 216.981 629.693 215.142 632.66 216.839L684.948 246.967C687.915 248.665 690.318 253.191 690.318 257.151V356.163C690.318 360.124 687.915 361.963 684.948 360.265Z" fill="#0C7EB6"/>
<path d="M687.21 361.398C686.503 361.398 685.655 361.115 684.807 360.691L632.52 330.563C629.411 328.724 627.009 324.056 627.009 319.955V220.943C627.009 218.68 627.715 216.982 629.129 216.275C630.259 215.568 631.672 215.709 633.086 216.558L685.373 246.686C688.482 248.525 690.884 253.192 690.884 257.294V356.306C690.884 358.569 690.177 360.267 688.764 360.974C688.199 361.257 687.775 361.398 687.21 361.398ZM685.231 359.842C686.362 360.549 687.492 360.549 688.34 360.125C689.33 359.559 690.036 358.145 690.036 356.165V257.153C690.036 253.334 687.775 248.949 684.949 247.252L632.662 217.124C631.531 216.416 630.4 216.416 629.553 216.841C628.563 217.407 627.857 218.821 627.857 220.801V319.813C627.857 323.632 630.118 328.017 632.944 329.714L685.231 359.842Z" fill="#0C7EB6"/>
<path opacity="0.6" d="M550.415 360.267L602.702 330.139C605.67 328.441 608.072 323.915 608.072 319.955V220.943C608.072 216.982 605.67 215.143 602.702 216.841L550.415 246.969C547.447 248.666 545.045 253.192 545.045 257.153V356.165C545.045 360.125 547.447 361.964 550.415 360.267Z" fill="#089ACC"/>
<path d="M548.295 361.398C547.73 361.398 547.165 361.257 546.741 360.974C545.469 360.267 544.621 358.428 544.621 356.306V257.294C544.621 253.192 547.165 248.383 550.132 246.686L602.42 216.558C603.833 215.709 605.246 215.568 606.377 216.275C607.648 216.982 608.496 218.821 608.496 220.943V319.955C608.496 324.056 605.953 328.866 602.985 330.563L550.698 360.691C549.85 361.115 549.002 361.398 548.295 361.398ZM604.822 216.558C604.257 216.558 603.55 216.699 602.985 217.124L550.698 247.252C547.871 248.949 545.61 253.334 545.61 257.153V356.165C545.61 358.145 546.176 359.559 547.306 360.125C548.154 360.549 549.285 360.549 550.415 359.842L602.702 329.714C605.529 328.017 607.79 323.632 607.79 319.813V220.801C607.79 218.821 607.224 217.407 606.094 216.841C605.529 216.699 605.246 216.558 604.822 216.558Z" fill="#089ACC"/>
<path d="M670.11 342.162L623.052 315.004C619.378 312.882 613.301 312.882 609.486 315.004L562.71 342.162C559.036 344.283 559.036 347.819 562.71 349.941L609.627 377.099C613.301 379.22 619.378 379.22 623.193 377.099L669.969 349.941C673.785 347.819 673.785 344.283 670.11 342.162Z" fill="url(#paint32_radial)"/>
<path opacity="0.4" d="M613.866 365.641L582.211 347.395C580.94 346.688 581.081 345.415 582.635 344.566L613.584 326.744C614.997 325.895 617.258 325.754 618.53 326.603L650.043 344.708C651.315 345.415 651.174 346.688 649.62 347.536L618.671 365.359C617.399 366.349 615.138 366.349 613.866 365.641Z" fill="#06033E"/>
<path d="M672.937 326.461V303.971L644.532 307.79L623.193 295.485C619.519 293.363 613.442 293.363 609.627 295.485L606.377 297.606L560.166 303.83V326.603V326.744C560.166 328.158 561.155 329.431 562.992 330.563L609.91 357.72C613.584 359.842 619.66 359.842 623.476 357.72L670.252 330.563C671.948 329.29 672.795 327.876 672.937 326.461Z" fill="url(#paint33_linear)"/>
<path d="M670.11 299.869L623.193 272.712C619.519 270.59 613.442 270.59 609.627 272.712L562.851 299.869C559.177 301.991 559.177 305.527 562.851 307.649L609.768 334.806C613.442 336.928 619.519 336.928 623.335 334.806L670.11 307.649C673.785 305.527 673.785 301.991 670.11 299.869Z" fill="url(#paint34_radial)"/>
<path opacity="0.4" d="M647.641 301.425L620.367 285.583C618.247 284.31 614.714 284.31 612.453 285.583L585.179 301.425C583.059 302.698 583.059 304.678 585.179 305.951L612.595 321.793C614.714 323.066 618.247 323.066 620.508 321.793L647.782 305.951C649.902 304.82 649.902 302.698 647.641 301.425Z" fill="#06033E"/>
<path d="M670.11 306.234L623.335 333.392C619.66 335.514 613.584 335.514 609.768 333.392L562.851 306.234C561.297 305.386 560.449 304.254 560.166 302.981C559.883 304.678 560.731 306.376 562.851 307.507L609.768 334.665C613.442 336.787 619.519 336.787 623.335 334.665L670.11 307.507C672.23 306.234 673.219 304.537 672.795 302.981C672.513 304.254 671.665 305.386 670.11 306.234Z" fill="white"/>
<path d="M639.021 335.514L636.76 336.787V334.241L639.021 332.826V335.514Z" fill="white"/>
<path d="M653.859 326.885L651.739 328.158V325.612L653.859 324.339V326.885Z" fill="white"/>
<path d="M666.719 319.389L664.458 320.662V318.116L666.719 316.843V319.389Z" fill="white"/>
<path d="M643.684 332.826L641.423 334.099V331.553L643.684 330.139V332.826Z" fill="white"/>
<path d="M672.937 284.169V261.679L644.532 265.498L623.193 253.192C619.519 251.071 613.442 251.071 609.627 253.192L606.377 255.314L560.166 261.538V284.31V284.452C560.166 285.866 561.155 287.139 562.992 288.271L609.91 315.428C613.584 317.55 619.66 317.55 623.476 315.428L670.252 288.271C671.948 286.998 672.795 285.583 672.937 284.169Z" fill="url(#paint35_linear)"/>
<path d="M670.11 257.577L623.193 230.42C619.519 228.298 613.442 228.298 609.627 230.42L562.851 257.577C559.177 259.699 559.177 263.235 562.851 265.357L609.768 292.514C613.442 294.636 619.519 294.636 623.335 292.514L670.11 265.357C673.785 263.235 673.785 259.699 670.11 257.577Z" fill="url(#paint36_radial)"/>
<path d="M670.11 263.942L623.335 291.1C619.66 293.221 613.584 293.221 609.768 291.1L562.851 264.084C561.297 263.235 560.449 262.103 560.166 260.83C559.883 262.528 560.731 264.225 562.851 265.357L609.768 292.514C613.442 294.636 619.519 294.636 623.335 292.514L670.11 265.357C672.23 264.084 673.219 262.386 672.795 260.83C672.513 261.962 671.665 263.094 670.11 263.942Z" fill="white"/>
<path d="M629.694 298.596L627.433 299.869V297.323L629.694 296.05V298.596Z" fill="white"/>
<path d="M634.357 295.909L632.096 297.182V294.636L634.357 293.363V295.909Z" fill="white"/>
<path d="M639.021 293.221L636.76 294.494V291.948L639.021 290.534V293.221Z" fill="white"/>
<path d="M635.205 300.577L632.944 301.85V299.304L635.205 298.031V300.577Z" fill="white"/>
<path d="M639.303 298.172L637.042 299.445V296.899L639.303 295.626V298.172Z" fill="white"/>
<path d="M653.859 284.593L651.739 285.866V283.32L653.859 282.047V284.593Z" fill="white"/>
<path d="M666.719 277.097L664.458 278.37V275.824L666.719 274.551V277.097Z" fill="white"/>
<path d="M643.684 290.534L641.423 291.807V289.261L643.684 287.846V290.534Z" fill="white"/>
<path d="M601.431 344.142L575.287 329.007C574.722 328.583 574.156 327.734 574.156 326.885V324.905C574.156 324.056 574.722 323.632 575.287 324.056L601.431 339.191C601.996 339.615 602.561 340.464 602.561 341.313V343.293C602.561 344 601.996 344.425 601.431 344.142Z" fill="white"/>
<path d="M601.431 302.698L575.287 287.564C574.722 287.139 574.156 286.291 574.156 285.442V283.462C574.156 282.613 574.722 282.189 575.287 282.613L601.431 297.748C601.996 298.172 602.561 299.021 602.561 299.869V301.85C602.561 302.698 601.996 303.123 601.431 302.698Z" fill="white"/>
<path opacity="0.4" d="M190.34 119.526C190.34 122.072 188.362 124.053 185.818 124.053C183.275 124.053 181.296 122.072 181.296 119.526C181.296 116.98 183.275 115 185.818 115C188.362 115 190.34 116.98 190.34 119.526Z" fill="#03A7D3"/>
<path opacity="0.8" d="M185.818 121.789C187.067 121.789 188.079 120.776 188.079 119.526C188.079 118.276 187.067 117.263 185.818 117.263C184.57 117.263 183.557 118.276 183.557 119.526C183.557 120.776 184.57 121.789 185.818 121.789Z" fill="#03A7D3"/>
<defs>
<linearGradient id="paint0_linear" x1="166.072" y1="182.946" x2="253.398" y2="182.946" gradientUnits="userSpaceOnUse">
<stop stop-color="#01C8EF"/>
<stop offset="0.1297" stop-color="#04B1DD"/>
<stop offset="0.5466" stop-color="#0E6BA7"/>
<stop offset="0.8476" stop-color="#154085"/>
<stop offset="1" stop-color="#172F78"/>
</linearGradient>
<radialGradient id="paint1_radial" cx="0" cy="0" r="1" gradientUnits="userSpaceOnUse" gradientTransform="translate(150.587 117.403) scale(195.018 195.196)">
<stop stop-color="#01C8EF"/>
<stop offset="0.1396" stop-color="#03BAE4"/>
<stop offset="0.4033" stop-color="#0895C8"/>
<stop offset="0.76" stop-color="#115A9A"/>
<stop offset="1" stop-color="#172F78"/>
</radialGradient>
<linearGradient id="paint2_linear" x1="166.072" y1="136.534" x2="253.398" y2="136.534" gradientUnits="userSpaceOnUse">
<stop stop-color="#01C8EF"/>
<stop offset="0.1297" stop-color="#04B1DD"/>
<stop offset="0.5466" stop-color="#0E6BA7"/>
<stop offset="0.8476" stop-color="#154085"/>
<stop offset="1" stop-color="#172F78"/>
</linearGradient>
<radialGradient id="paint3_radial" cx="0" cy="0" r="1" gradientUnits="userSpaceOnUse" gradientTransform="translate(150.587 70.9914) scale(195.018 195.196)">
<stop stop-color="#01C8EF"/>
<stop offset="0.1396" stop-color="#03BAE4"/>
<stop offset="0.4033" stop-color="#0895C8"/>
<stop offset="0.76" stop-color="#115A9A"/>
<stop offset="1" stop-color="#172F78"/>
</radialGradient>
<linearGradient id="paint4_linear" x1="166.072" y1="90.1223" x2="253.398" y2="90.1223" gradientUnits="userSpaceOnUse">
<stop stop-color="#01C8EF"/>
<stop offset="0.1297" stop-color="#04B1DD"/>
<stop offset="0.5466" stop-color="#0E6BA7"/>
<stop offset="0.8476" stop-color="#154085"/>
<stop offset="1" stop-color="#172F78"/>
</linearGradient>
<radialGradient id="paint5_radial" cx="0" cy="0" r="1" gradientUnits="userSpaceOnUse" gradientTransform="translate(150.586 24.5797) scale(195.018 195.196)">
<stop stop-color="#01C8EF"/>
<stop offset="0.1396" stop-color="#03BAE4"/>
<stop offset="0.4033" stop-color="#0895C8"/>
<stop offset="0.76" stop-color="#115A9A"/>
<stop offset="1" stop-color="#172F78"/>
</radialGradient>
<linearGradient id="paint6_linear" x1="74.8856" y1="235.751" x2="162.212" y2="235.751" gradientUnits="userSpaceOnUse">
<stop stop-color="#01C8EF"/>
<stop offset="0.1297" stop-color="#04B1DD"/>
<stop offset="0.5466" stop-color="#0E6BA7"/>
<stop offset="0.8476" stop-color="#154085"/>
<stop offset="1" stop-color="#172F78"/>
</linearGradient>
<radialGradient id="paint7_radial" cx="0" cy="0" r="1" gradientUnits="userSpaceOnUse" gradientTransform="translate(59.4007 170.209) scale(195.018 195.196)">
<stop stop-color="#01C8EF"/>
<stop offset="0.1396" stop-color="#03BAE4"/>
<stop offset="0.4033" stop-color="#0895C8"/>
<stop offset="0.76" stop-color="#115A9A"/>
<stop offset="1" stop-color="#172F78"/>
</radialGradient>
<linearGradient id="paint8_linear" x1="74.8856" y1="189.339" x2="162.212" y2="189.339" gradientUnits="userSpaceOnUse">
<stop stop-color="#01C8EF"/>
<stop offset="0.1297" stop-color="#04B1DD"/>
<stop offset="0.5466" stop-color="#0E6BA7"/>
<stop offset="0.8476" stop-color="#154085"/>
<stop offset="1" stop-color="#172F78"/>
</linearGradient>
<radialGradient id="paint9_radial" cx="0" cy="0" r="1" gradientUnits="userSpaceOnUse" gradientTransform="translate(59.4007 123.797) scale(195.018 195.196)">
<stop stop-color="#01C8EF"/>
<stop offset="0.1396" stop-color="#03BAE4"/>
<stop offset="0.4033" stop-color="#0895C8"/>
<stop offset="0.76" stop-color="#115A9A"/>
<stop offset="1" stop-color="#172F78"/>
</radialGradient>
<linearGradient id="paint10_linear" x1="74.8856" y1="142.928" x2="162.212" y2="142.928" gradientUnits="userSpaceOnUse">
<stop stop-color="#01C8EF"/>
<stop offset="0.1297" stop-color="#04B1DD"/>
<stop offset="0.5466" stop-color="#0E6BA7"/>
<stop offset="0.8476" stop-color="#154085"/>
<stop offset="1" stop-color="#172F78"/>
</linearGradient>
<radialGradient id="paint11_radial" cx="0" cy="0" r="1" gradientUnits="userSpaceOnUse" gradientTransform="translate(59.4007 77.3852) scale(195.018 195.196)">
<stop stop-color="#01C8EF"/>
<stop offset="0.1396" stop-color="#03BAE4"/>
<stop offset="0.4033" stop-color="#0895C8"/>
<stop offset="0.76" stop-color="#115A9A"/>
<stop offset="1" stop-color="#172F78"/>
</radialGradient>
<radialGradient id="paint12_radial" cx="0" cy="0" r="1" gradientUnits="userSpaceOnUse" gradientTransform="translate(76.6094 89.1474) scale(134.082 134.204)">
<stop stop-color="#F9636B"/>
<stop offset="1" stop-color="#B6246E"/>
</radialGradient>
<linearGradient id="paint13_linear" x1="256.929" y1="235.699" x2="344.255" y2="235.699" gradientUnits="userSpaceOnUse">
<stop stop-color="#01C8EF"/>
<stop offset="0.1297" stop-color="#04B1DD"/>
<stop offset="0.5466" stop-color="#0E6BA7"/>
<stop offset="0.8476" stop-color="#154085"/>
<stop offset="1" stop-color="#172F78"/>
</linearGradient>
<radialGradient id="paint14_radial" cx="0" cy="0" r="1" gradientUnits="userSpaceOnUse" gradientTransform="translate(241.444 170.157) scale(195.018 195.196)">
<stop stop-color="#01C8EF"/>
<stop offset="0.1396" stop-color="#03BAE4"/>
<stop offset="0.4033" stop-color="#0895C8"/>
<stop offset="0.76" stop-color="#115A9A"/>
<stop offset="1" stop-color="#172F78"/>
</radialGradient>
<linearGradient id="paint15_linear" x1="256.929" y1="189.287" x2="344.255" y2="189.287" gradientUnits="userSpaceOnUse">
<stop stop-color="#01C8EF"/>
<stop offset="0.1297" stop-color="#04B1DD"/>
<stop offset="0.5466" stop-color="#0E6BA7"/>
<stop offset="0.8476" stop-color="#154085"/>
<stop offset="1" stop-color="#172F78"/>
</linearGradient>
<radialGradient id="paint16_radial" cx="0" cy="0" r="1" gradientUnits="userSpaceOnUse" gradientTransform="translate(241.444 123.745) scale(195.018 195.196)">
<stop stop-color="#01C8EF"/>
<stop offset="0.1396" stop-color="#03BAE4"/>
<stop offset="0.4033" stop-color="#0895C8"/>
<stop offset="0.76" stop-color="#115A9A"/>
<stop offset="1" stop-color="#172F78"/>
</radialGradient>
<linearGradient id="paint17_linear" x1="256.929" y1="142.876" x2="344.255" y2="142.876" gradientUnits="userSpaceOnUse">
<stop stop-color="#01C8EF"/>
<stop offset="0.1297" stop-color="#04B1DD"/>
<stop offset="0.5466" stop-color="#0E6BA7"/>
<stop offset="0.8476" stop-color="#154085"/>
<stop offset="1" stop-color="#172F78"/>
</linearGradient>
<radialGradient id="paint18_radial" cx="0" cy="0" r="1" gradientUnits="userSpaceOnUse" gradientTransform="translate(241.444 77.333) scale(195.018 195.196)">
<stop stop-color="#01C8EF"/>
<stop offset="0.1396" stop-color="#03BAE4"/>
<stop offset="0.4033" stop-color="#0895C8"/>
<stop offset="0.76" stop-color="#115A9A"/>
<stop offset="1" stop-color="#172F78"/>
</radialGradient>
<linearGradient id="paint19_linear" x1="165.742" y1="288.505" x2="253.069" y2="288.505" gradientUnits="userSpaceOnUse">
<stop stop-color="#01C8EF"/>
<stop offset="0.1297" stop-color="#04B1DD"/>
<stop offset="0.5466" stop-color="#0E6BA7"/>
<stop offset="0.8476" stop-color="#154085"/>
<stop offset="1" stop-color="#172F78"/>
</linearGradient>
<radialGradient id="paint20_radial" cx="0" cy="0" r="1" gradientUnits="userSpaceOnUse" gradientTransform="translate(150.258 222.962) scale(195.018 195.196)">
<stop stop-color="#01C8EF"/>
<stop offset="0.1396" stop-color="#03BAE4"/>
<stop offset="0.4033" stop-color="#0895C8"/>
<stop offset="0.76" stop-color="#115A9A"/>
<stop offset="1" stop-color="#172F78"/>
</radialGradient>
<linearGradient id="paint21_linear" x1="165.742" y1="242.093" x2="253.069" y2="242.093" gradientUnits="userSpaceOnUse">
<stop stop-color="#01C8EF"/>
<stop offset="0.1297" stop-color="#04B1DD"/>
<stop offset="0.5466" stop-color="#0E6BA7"/>
<stop offset="0.8476" stop-color="#154085"/>
<stop offset="1" stop-color="#172F78"/>
</linearGradient>
<radialGradient id="paint22_radial" cx="0" cy="0" r="1" gradientUnits="userSpaceOnUse" gradientTransform="translate(150.258 176.55) scale(195.018 195.196)">
<stop stop-color="#01C8EF"/>
<stop offset="0.1396" stop-color="#03BAE4"/>
<stop offset="0.4033" stop-color="#0895C8"/>
<stop offset="0.76" stop-color="#115A9A"/>
<stop offset="1" stop-color="#172F78"/>
</radialGradient>
<linearGradient id="paint23_linear" x1="165.742" y1="195.681" x2="253.069" y2="195.681" gradientUnits="userSpaceOnUse">
<stop stop-color="#01C8EF"/>
<stop offset="0.1297" stop-color="#04B1DD"/>
<stop offset="0.5466" stop-color="#0E6BA7"/>
<stop offset="0.8476" stop-color="#154085"/>
<stop offset="1" stop-color="#172F78"/>
</linearGradient>
<radialGradient id="paint24_radial" cx="0" cy="0" r="1" gradientUnits="userSpaceOnUse" gradientTransform="translate(150.258 130.138) scale(195.018 195.196)">
<stop stop-color="#01C8EF"/>
<stop offset="0.1396" stop-color="#03BAE4"/>
<stop offset="0.4033" stop-color="#0895C8"/>
<stop offset="0.76" stop-color="#115A9A"/>
<stop offset="1" stop-color="#172F78"/>
</radialGradient>
<linearGradient id="paint25_linear" x1="553.242" y1="151.721" x2="632.968" y2="151.721" gradientUnits="userSpaceOnUse">
<stop stop-color="#01C8EF"/>
<stop offset="0.1297" stop-color="#04B1DD"/>
<stop offset="0.5466" stop-color="#0E6BA7"/>
<stop offset="0.8476" stop-color="#154085"/>
<stop offset="1" stop-color="#172F78"/>
</linearGradient>
<radialGradient id="paint26_radial" cx="0" cy="0" r="1" gradientUnits="userSpaceOnUse" gradientTransform="translate(539.103 91.8826) scale(178.044 178.206)">
<stop stop-color="#01C8EF"/>
<stop offset="0.1396" stop-color="#03BAE4"/>
<stop offset="0.4033" stop-color="#0895C8"/>
<stop offset="0.76" stop-color="#115A9A"/>
<stop offset="1" stop-color="#172F78"/>
</radialGradient>
<linearGradient id="paint27_linear" x1="553.242" y1="109.348" x2="632.968" y2="109.348" gradientUnits="userSpaceOnUse">
<stop stop-color="#01C8EF"/>
<stop offset="0.1297" stop-color="#04B1DD"/>
<stop offset="0.5466" stop-color="#0E6BA7"/>
<stop offset="0.8476" stop-color="#154085"/>
<stop offset="1" stop-color="#172F78"/>
</linearGradient>
<radialGradient id="paint28_radial" cx="0" cy="0" r="1" gradientUnits="userSpaceOnUse" gradientTransform="translate(539.103 49.5104) scale(178.044 178.206)">
<stop stop-color="#01C8EF"/>
<stop offset="0.1396" stop-color="#03BAE4"/>
<stop offset="0.4033" stop-color="#0895C8"/>
<stop offset="0.76" stop-color="#115A9A"/>
<stop offset="1" stop-color="#172F78"/>
</radialGradient>
<linearGradient id="paint29_linear" x1="553.242" y1="66.9761" x2="632.968" y2="66.9761" gradientUnits="userSpaceOnUse">
<stop stop-color="#01C8EF"/>
<stop offset="0.1297" stop-color="#04B1DD"/>
<stop offset="0.5466" stop-color="#0E6BA7"/>
<stop offset="0.8476" stop-color="#154085"/>
<stop offset="1" stop-color="#172F78"/>
</linearGradient>
<radialGradient id="paint30_radial" cx="0" cy="0" r="1" gradientUnits="userSpaceOnUse" gradientTransform="translate(539.103 7.13823) scale(178.044 178.206)">
<stop stop-color="#01C8EF"/>
<stop offset="0.1396" stop-color="#03BAE4"/>
<stop offset="0.4033" stop-color="#0895C8"/>
<stop offset="0.76" stop-color="#115A9A"/>
<stop offset="1" stop-color="#172F78"/>
</radialGradient>
<radialGradient id="paint31_radial" cx="0" cy="0" r="1" gradientUnits="userSpaceOnUse" gradientTransform="translate(554.814 17.8765) scale(122.412 122.523)">
<stop stop-color="#F9636B"/>
<stop offset="1" stop-color="#B6246E"/>
</radialGradient>
<radialGradient id="paint32_radial" cx="0" cy="0" r="1" gradientUnits="userSpaceOnUse" gradientTransform="translate(539.144 309.023) scale(177.706 177.868)">
<stop stop-color="#01C8EF"/>
<stop offset="0.1396" stop-color="#03BAE4"/>
<stop offset="0.4033" stop-color="#0895C8"/>
<stop offset="0.76" stop-color="#115A9A"/>
<stop offset="1" stop-color="#172F78"/>
</radialGradient>
<linearGradient id="paint33_linear" x1="553.254" y1="326.455" x2="632.829" y2="326.455" gradientUnits="userSpaceOnUse">
<stop stop-color="#01C8EF"/>
<stop offset="0.1297" stop-color="#04B1DD"/>
<stop offset="0.5466" stop-color="#0E6BA7"/>
<stop offset="0.8476" stop-color="#154085"/>
<stop offset="1" stop-color="#172F78"/>
</linearGradient>
<radialGradient id="paint34_radial" cx="0" cy="0" r="1" gradientUnits="userSpaceOnUse" gradientTransform="translate(539.144 266.731) scale(177.706 177.868)">
<stop stop-color="#01C8EF"/>
<stop offset="0.1396" stop-color="#03BAE4"/>
<stop offset="0.4033" stop-color="#0895C8"/>
<stop offset="0.76" stop-color="#115A9A"/>
<stop offset="1" stop-color="#172F78"/>
</radialGradient>
<linearGradient id="paint35_linear" x1="553.254" y1="284.163" x2="632.829" y2="284.163" gradientUnits="userSpaceOnUse">
<stop stop-color="#01C8EF"/>
<stop offset="0.1297" stop-color="#04B1DD"/>
<stop offset="0.5466" stop-color="#0E6BA7"/>
<stop offset="0.8476" stop-color="#154085"/>
<stop offset="1" stop-color="#172F78"/>
</linearGradient>
<radialGradient id="paint36_radial" cx="0" cy="0" r="1" gradientUnits="userSpaceOnUse" gradientTransform="translate(539.144 224.439) scale(177.706 177.868)">
<stop stop-color="#01C8EF"/>
<stop offset="0.1396" stop-color="#03BAE4"/>
<stop offset="0.4033" stop-color="#0895C8"/>
<stop offset="0.76" stop-color="#115A9A"/>
<stop offset="1" stop-color="#172F78"/>
</radialGradient>
</defs>
</svg>
