<svg width="25" height="25" viewBox="0 0 25 25" fill="none" xmlns="http://www.w3.org/2000/svg">
<path d="M24.73 8.10002C24.0433 6.29877 22.9982 4.65561 21.658 3.27002C20.283 1.94924 18.6512 0.925066 16.864 0.261016C16.1584 -0.00795314 15.3901 -0.0677119 14.6514 0.0889032C13.9127 0.245518 13.2348 0.611861 12.699 1.14402L8.864 4.96102C8.30805 5.51725 7.93285 6.22827 7.78744 7.00114C7.64204 7.77402 7.7332 8.57278 8.049 9.29302C8.249 9.74602 8.469 10.193 8.703 10.616L0.286 19.033C0.103041 19.2161 0.000181944 19.4642 0 19.723L0 24.023C0 24.2821 0.102934 24.5306 0.286157 24.7139C0.46938 24.8971 0.717883 25 0.977 25H5.277C5.53612 25 5.78462 24.8971 5.96784 24.7139C6.15107 24.5306 6.254 24.2821 6.254 24.023V22.262H8.008C8.26712 22.262 8.51562 22.1591 8.69884 21.9759C8.88207 21.7926 8.985 21.5441 8.985 21.285V19.528H10.743C10.8739 19.5322 11.0042 19.51 11.1264 19.4629C11.2485 19.4157 11.3599 19.3444 11.454 19.2533C11.548 19.1622 11.6228 19.0532 11.6739 18.9326C11.7249 18.812 11.7513 18.6824 11.7513 18.5515C11.7513 18.4206 11.7249 18.291 11.6739 18.1704C11.6228 18.0499 11.548 17.9408 11.454 17.8497C11.3599 17.7586 11.2485 17.6874 11.1264 17.6402C11.0042 17.593 10.8739 17.5708 10.743 17.575H8.008C7.8797 17.575 7.75265 17.6003 7.63412 17.6494C7.51558 17.6985 7.40788 17.7704 7.31716 17.8612C7.22643 17.9519 7.15447 18.0596 7.10537 18.1781C7.05627 18.2967 7.031 18.4237 7.031 18.552V20.31H5.273C5.1447 20.31 5.01765 20.3353 4.89912 20.3844C4.78058 20.4335 4.67288 20.5054 4.58216 20.5962C4.49143 20.6869 4.41947 20.7946 4.37037 20.9131C4.32127 21.0317 4.296 21.1587 4.296 21.287V23.045H1.953V20.128L10.613 11.468C10.7681 11.3131 10.8667 11.1106 10.8928 10.893C10.9189 10.6753 10.8711 10.4552 10.757 10.268C10.4121 9.69873 10.1035 9.10822 9.833 8.50002C9.67643 8.1416 9.63161 7.7443 9.7044 7.36002C9.77719 6.97573 9.9642 6.62234 10.241 6.34602L14.076 2.52902C14.3449 2.26199 14.685 2.07817 15.0557 1.99959C15.4264 1.92102 15.8119 1.95103 16.166 2.08602C17.6986 2.65287 19.0988 3.52788 20.28 4.65702C21.429 5.85194 22.3243 7.267 22.912 8.81702C23.0503 9.16923 23.0825 9.55422 23.0047 9.92453C22.9269 10.2948 22.7424 10.6343 22.474 10.901L18.593 14.764C18.3166 15.0389 17.9648 15.2256 17.5822 15.3002C17.1996 15.3748 16.8034 15.334 16.444 15.183C15.8355 14.9292 15.2477 14.6283 14.686 14.283C14.4654 14.1534 14.2028 14.1154 13.9545 14.1774C13.7062 14.2393 13.4922 14.3962 13.3583 14.6142C13.2245 14.8323 13.1815 15.0942 13.2387 15.3436C13.2958 15.593 13.4485 15.81 13.664 15.948C14.3124 16.3452 14.9908 16.6912 15.693 16.983C16.4087 17.2831 17.1974 17.3636 17.9589 17.2144C18.7205 17.0652 19.4205 16.693 19.97 16.145L23.851 12.282C24.3896 11.7467 24.7598 11.0656 24.916 10.3225C25.0722 9.57938 25.0075 8.80682 24.73 8.10002Z" fill="white"/>
</svg>
