<svg xmlns="http://www.w3.org/2000/svg" viewBox="0 0 99 120.32"><defs><style>.cls-g,.cls-h{fill:none;stroke-linecap:round;stroke-miterlimit:10;stroke-width:2px;}.cls-g{stroke:#673ab7;}.cls-h{stroke:#323233;}</style></defs><title>Interoperability</title><g id="Layer_2" data-name="Layer 2"><g id="Features"><polyline class="cls-g" points="68.17 48.02 73.41 53.26 86.65 40.03"></polyline><polyline class="cls-h" points="69.43 98.44 93 84.83 93 67.29"></polyline><polyline class="cls-h" points="13 58.29 13 84.83 37.86 99.19"></polyline><line class="cls-h" x1="37.01" y1="24.87" x2="28.56" y2="29.75"></line><polygon class="cls-g" points="57 35.84 57 59.51 77.5 71.35 98 59.51 98 35.84 77.5 24 57 35.84"></polygon><polygon class="cls-h" points="26 62.09 26 75.37 37.5 82.01 49 75.37 49 62.09 37.5 55.45 26 62.09"></polygon><polygon class="cls-h" points="41 8.37 41 22.8 53.5 30.02 66 22.8 66 8.37 53.5 1.16 41 8.37"></polygon><polygon class="cls-h" points="1 32.09 1 46.52 13.5 53.74 26 46.52 26 32.09 13.5 24.87 1 32.09"></polygon><polygon class="cls-h" points="43 101.85 43 113.4 53 119.17 63 113.4 63 101.85 53 96.08 43 101.85"></polygon></g></g></svg>