<svg width="36" height="32" viewBox="0 0 36 32" fill="none" xmlns="http://www.w3.org/2000/svg">
<path d="M17.5941 15.8427L25.4979 0.885376L8.54277 1.62886L0.77039 16.5804L9.82744 30.9256L26.7826 30.1821L17.5941 15.8427Z" fill="#FF6666"/>
<path d="M0.77039 16.5804L8.54277 1.62886L25.4979 0.885376L17.5941 15.8427L0.77039 16.5804Z" fill="#FF6666"/>
<path d="M9.82742 30.9255L0.770372 16.5804L17.5941 15.8426L26.7825 30.182L9.82742 30.9255Z" fill="#D32F2F"/>
<path d="M17.5943 15.8434L25.4982 0.886073L34.5495 15.0999L26.7828 30.1828L17.5943 15.8434Z" fill="#FF6666"/>
<path d="M17.5941 15.8427L25.4979 0.885376L24.7093 0.919957L16.9369 15.8715L25.994 30.2166L26.7826 30.1821L17.5941 15.8427Z" fill="white"/>
</svg>
