<svg xmlns="http://www.w3.org/2000/svg" viewBox="0 0 107.43 83.34"><defs><style>.cls-i,.cls-j{fill:none;stroke-linecap:round;stroke-miterlimit:10;stroke-width:2px;}.cls-i{stroke:#323233;}.cls-j{stroke:#673ab7;}</style></defs><title>Modularity</title><g id="Layer_2" data-name="Layer 2"><g id="Features"><line class="cls-i" x1="13.3" y1="1.39" x2="32.13" y2="20.17"></line><polyline class="cls-i" points="20.8 1 12.8 1 12.8 9"></polyline><line class="cls-i" x1="92.71" y1="1.39" x2="73.88" y2="20.17"></line><polygon class="cls-j" points="35.8 31.81 35.8 50.86 52.3 60.38 68.81 50.86 68.81 31.81 52.3 22.28 35.8 31.81"></polygon><polyline class="cls-i" points="84.81 1 92.81 1 92.81 9"></polyline><line class="cls-i" x1="105.81" y1="42" x2="79.81" y2="41.96"></line><polyline class="cls-i" points="100.32 36.14 106.01 41.84 100.4 47.45"></polyline><line class="cls-i" x1="1.81" y1="42" x2="27.81" y2="41.96"></line><polyline class="cls-i" points="7.11 36.14 1.41 41.84 7.03 47.45"></polyline><line class="cls-i" x1="13.3" y1="82.34" x2="32.13" y2="63.56"></line><polyline class="cls-i" points="20.8 82 12.8 82 12.8 74"></polyline><line class="cls-i" x1="92.71" y1="82.34" x2="73.88" y2="63.56"></line><polyline class="cls-i" points="84.81 82 92.81 82 92.81 74"></polyline><polyline class="cls-j" points="46.2 41.15 50.5 45.45 58.54 37.42"></polyline></g></g></svg>