<svg xmlns="http://www.w3.org/2000/svg" viewBox="0 0 107.5 111.63"><defs><style>.cls-m,.cls-n{fill:none;stroke-linecap:round;stroke-miterlimit:10;stroke-width:2px;}.cls-m{stroke:#323233;}.cls-n{stroke:#673ab7;}</style></defs><title>Security</title><g id="Layer_2" data-name="Layer 2"><g id="Features"><path class="cls-m" d="M66.53,75.71,76.9,27A11.82,11.82,0,0,0,65.34,12.69H21.81"></path><path class="cls-m" d="M84.81,35.69h21.46l-13,63H59.8a6,6,0,0,1-6-6h0a6,6,0,0,1,6-6h.94a6.08,6.08,0,0,0,6.07-6.08v-.84a6.08,6.08,0,0,0-6.07-6.08H8.81"></path><line class="cls-m" x1="56.75" y1="80.55" x2="55.01" y2="88.74"></line><line class="cls-m" x1="24.37" y1="1" x2="1" y2="110.63"></line><polygon class="cls-n" points="53.43 47.69 46.5 47.69 43.04 53.69 46.5 59.69 53.43 59.69 56.89 53.69 53.43 47.69"></polygon><polygon class="cls-n" points="37.96 37.69 31.03 37.69 27.56 43.69 31.03 49.69 37.96 49.69 41.42 43.69 37.96 37.69"></polygon><polygon class="cls-n" points="53.77 29.69 46.84 29.69 43.38 35.69 46.84 41.69 53.77 41.69 57.23 35.69 53.77 29.69"></polygon></g></g></svg>