<svg width="25" height="21" viewBox="0 0 25 21" fill="none" xmlns="http://www.w3.org/2000/svg">
<path d="M8.88699 11.965C8.88686 13.5274 9.34098 15.056 10.194 16.3649C11.0471 17.6738 12.2623 18.7065 13.6918 19.3371C15.1212 19.9678 16.7031 20.1692 18.245 19.917C19.7868 19.6647 21.2221 18.9696 22.3759 17.9162C23.5298 16.8629 24.3526 15.4968 24.744 13.9843C25.1355 12.4718 25.0787 10.8781 24.5806 9.39725C24.0826 7.91641 23.1647 6.61232 21.9388 5.64376C20.7129 4.6752 19.2319 4.08395 17.676 3.942V2.442H19.141V0.979004H14.746V2.444H16.211V3.944C14.2107 4.12902 12.3514 5.05372 10.9968 6.53719C9.64224 8.02066 8.88991 9.95615 8.88699 11.965ZM23.535 11.965C23.535 13.2688 23.1484 14.5433 22.424 15.6273C21.6997 16.7114 20.6702 17.5563 19.4656 18.0552C18.2611 18.5542 16.9357 18.6847 15.657 18.4303C14.3782 18.176 13.2037 17.5482 12.2817 16.6263C11.3598 15.7043 10.732 14.5298 10.4777 13.251C10.2233 11.9723 10.3538 10.6469 10.8528 9.44236C11.3517 8.23782 12.1966 7.20829 13.2807 6.48396C14.3647 5.75962 15.6392 5.373 16.943 5.373C18.6907 5.37512 20.3661 6.07031 21.6019 7.30609C22.8377 8.54188 23.5329 10.2173 23.535 11.965Z" fill="white"/>
<path d="M16.211 6.83801V12.697H22.07V11.233H17.676V6.83801H16.211Z" fill="white"/>
<path d="M0 11.233H5.957V12.698H0V11.233Z" fill="white"/>
<path d="M1.465 6.83801H7.422V8.30301H1.465V6.83801Z" fill="white"/>
<path d="M1.465 15.627H7.422V17.092H1.465V15.627Z" fill="white"/>
</svg>
