<svg width="515" height="574" viewBox="0 0 515 574" fill="none" xmlns="http://www.w3.org/2000/svg">
<path d="M106.026 447.034C101.417 479.459 120.905 512.797 164.57 537.523C243.57 582.291 372.144 582.291 451.146 537.523C530.148 492.755 530.146 419.887 451.146 375.123C411.766 352.823 360.095 341.623 308.384 341.547V339.247C360.945 339.247 413.869 350.717 453.936 373.498C534.515 419.179 534.515 493.515 453.936 539.157C373.357 584.799 242.198 584.838 161.619 539.157C117.145 513.957 97.293 480.057 101.862 447.04L106.026 447.034Z" fill="url(#paint0_linear)"/>
<path d="M206.072 517.129C262.218 550.929 353.545 550.929 409.731 517.129C465.917 483.329 465.877 428.386 409.731 394.587C353.585 360.788 262.258 360.787 206.072 394.587C149.886 428.387 149.926 483.371 206.072 517.129ZM407.015 396.21C461.684 429.093 461.684 482.622 407.015 515.547C352.346 548.472 263.256 548.43 208.747 515.547C154.238 482.664 154.078 429.135 208.747 396.21C263.416 363.285 352.347 363.326 407.015 396.21Z" fill="url(#paint1_linear)"/>
<path d="M241.716 505.524C278.179 526.586 337.452 526.586 374.04 505.524C410.628 484.462 410.503 450.205 374.04 429.143C337.577 408.081 278.304 408.081 241.716 429.143C205.128 450.205 205.045 484.464 241.716 505.524ZM371.543 430.6C406.591 450.829 406.591 483.8 371.543 504.026C336.495 524.252 279.428 524.255 244.38 504.026C209.332 483.797 209.332 450.826 244.38 430.6C279.428 410.374 336.37 410.373 371.542 430.602L371.543 430.6Z" fill="url(#paint2_linear)"/>
<path d="M273.812 493.146C292.585 503.968 323.137 503.968 341.912 493.146C360.687 482.324 360.685 464.675 341.912 453.853C323.139 443.031 292.587 443.031 273.856 453.853C255.125 464.675 254.994 482.324 273.812 493.146ZM339.325 455.306C356.682 465.338 356.682 481.613 339.325 491.644C329.571 496.585 318.791 499.159 307.857 499.159C296.923 499.159 286.143 496.585 276.389 491.644C259.032 481.612 259.032 465.337 276.389 455.306C286.143 450.365 296.923 447.791 307.857 447.791C318.791 447.791 329.571 450.365 339.325 455.306Z" fill="url(#paint3_linear)"/>
<path d="M230.097 492.565L355.744 425.758C373.363 416.39 388.298 390.128 389.102 367.099L400.738 33.8733C401.543 10.8443 387.912 -0.226151 370.293 9.14267L244.646 75.9514C227.027 85.3192 212.092 111.586 211.288 134.61L199.652 467.83C198.848 490.859 212.477 501.933 230.097 492.565Z" fill="#6DF7FB"/>
<g opacity="0.6">
<path opacity="0.83" d="M265.114 84.0306C296.717 67.1643 372.661 26.706 387.12 19.3491C401.579 11.9923 421.363 10.725 420.349 45.7249C419.335 80.7248 409.072 367.828 409.072 367.828C409.072 367.828 411.04 415.037 379.714 433.173C348.388 451.309 250.454 502.427 250.454 502.427C250.454 502.427 236.934 509.022 227.371 502.427C217.809 495.833 217.809 484.951 217.479 471.102C217.149 457.253 230.273 141.754 230.273 141.754C230.273 141.754 233.511 100.897 265.114 84.0306Z" fill="url(#paint4_linear)"/>
<path opacity="0.64" d="M223.129 471.967L223.129 359.227L353.37 43.426L402.185 17.7219L223.129 471.967Z" fill="url(#paint5_linear)"/>
<path opacity="0.72" d="M222.799 331.773L225.726 260.165L304.552 63.4895L337.722 45.9294L222.799 331.773Z" fill="url(#paint6_linear)"/>
</g>
<path d="M328.431 268.373C328.452 268.992 328.478 269.586 328.478 270.201C328.555 271.982 328.627 273.639 328.726 275.126C328.876 277.3 329.072 279.426 329.345 281.503V281.529C329.516 282.84 329.691 284.129 329.913 285.39C330.135 286.676 330.357 287.936 330.631 289.17C330.731 289.67 330.831 290.187 330.977 290.682C331.199 291.647 331.447 292.608 331.695 293.574C332.095 295.009 332.511 296.444 333.006 297.828C333.326 298.768 333.672 299.66 334.018 300.574V300.6C334.193 301.044 334.364 301.488 334.565 301.933C334.932 302.826 335.33 303.688 335.752 304.555V304.581C336.171 305.422 336.615 306.264 337.059 307.101C337.529 307.942 338.024 308.758 338.52 309.574C338.768 309.974 339.041 310.368 339.289 310.761V310.787C339.831 311.556 340.374 312.346 340.942 313.111C342.995 315.835 345.325 318.338 347.895 320.581C348.66 321.247 349.428 321.867 350.218 322.481C351.02 323.133 351.854 323.745 352.718 324.313C353.038 324.556 353.384 324.757 353.73 324.979C354.298 325.351 354.917 325.744 355.537 326.089C355.93 326.362 356.353 326.589 356.797 326.832C357.489 327.232 358.207 327.622 358.95 328.019C359.693 328.391 360.458 328.762 361.226 329.134H361.247C371.609 333.956 384.99 336.899 402.203 337.565V337.539C419.441 316.991 432.818 298.591 443.159 281.822C444.739 279.298 446.226 276.822 447.635 274.377C453.276 264.768 458.274 254.796 462.597 244.526C463.485 242.348 464.305 240.246 465.121 238.119C465.54 237.034 465.935 235.947 466.308 234.856C471.519 220.521 474.674 205.52 475.678 190.3C475.802 188.668 475.878 186.934 475.926 185.055C475.952 184.461 475.977 183.821 475.977 183.176C476.101 178.876 476.101 174.076 476.024 169.205C476.024 168.389 476.024 167.573 475.998 166.732C475.951 163.097 475.874 159.432 475.776 155.922C475.75 154.982 475.729 154.068 475.676 153.154C475.576 150.433 475.505 147.811 475.403 145.41C475.382 144.868 475.356 144.347 475.356 143.83C475.305 143.309 475.279 142.813 475.279 142.322C475.258 141.703 475.232 141.083 475.206 140.515C475.18 140.096 475.155 139.674 475.155 139.276C475.108 138.067 475.055 136.953 475.01 135.987C475.01 135.94 474.984 135.914 475.01 135.863C474.959 135.346 474.933 134.851 474.91 134.381V134.159C474.884 133.416 474.859 132.797 474.81 132.305C474.815 132.148 474.808 131.991 474.789 131.835C474.769 131.638 474.76 131.439 474.763 131.241C467.257 135.848 459.353 139.771 451.144 142.961C430.668 150.828 413.182 151.815 402.3 146.967L402.2 146.993L402.1 147.093C391.217 164.506 373.731 183.722 353.281 199.448C345.834 205.25 337.938 210.45 329.666 215C329.67 215.059 329.661 215.119 329.64 215.175V215.375C329.622 215.465 329.615 215.556 329.619 215.648C329.593 215.943 329.593 216.314 329.568 216.711C329.542 217.13 329.517 217.599 329.517 218.12C329.5 218.193 329.492 218.267 329.496 218.342C329.47 218.812 329.445 219.354 329.419 219.927V220.027C329.372 221.065 329.323 222.227 329.27 223.512C329.249 223.935 329.223 224.379 329.223 224.798C329.197 225.417 329.172 226.037 329.15 226.698C329.099 227.219 329.073 227.736 329.073 228.283C329.047 228.825 329.026 229.372 329 229.94C328.923 232.44 328.825 235.181 328.727 238C328.701 238.94 328.676 239.879 328.654 240.87C328.554 244.505 328.454 248.263 328.406 251.949C328.406 252.349 328.38 252.765 328.38 253.188V253.632C328.38 254.273 328.354 254.918 328.354 255.558C328.307 260.112 328.329 264.516 328.431 268.373Z" fill="#6DF7FB"/>
<path d="M339.76 267.576V263.937C339.76 260.212 339.76 256.356 340.02 252.674V249.774C340.02 246.958 340.02 244.142 340.28 241.587V231.537V226.945C348.671 222.333 356.681 217.061 364.235 211.177C384.02 196.37 401.081 178.239 414.658 157.591C422.458 161.057 433.588 161.576 446.801 158.761C452.706 157.455 458.5 155.688 464.129 153.476C472.537 150.241 480.628 146.238 488.301 141.517V142.08C488.288 142.239 488.288 142.398 488.301 142.557V146.196V155.727C488.301 158.196 488.301 160.839 488.561 163.611V166.427C488.561 169.979 488.561 173.705 488.821 177.387V195.971C488.871 197.737 488.784 199.504 488.561 201.256C487.74 216.719 484.736 231.989 479.637 246.611L478.424 249.947C477.601 252.07 476.735 254.279 475.824 256.402C471.437 266.829 466.373 276.959 460.666 286.727C459.193 289.196 457.72 291.709 456.334 294.264C443.859 314.01 429.975 332.831 414.791 350.579C403.094 350.358 391.493 348.431 380.352 344.861C377.933 344.043 375.563 343.089 373.252 342.002L370.952 340.832L368.786 339.662L367.486 338.926L365.623 337.756L364.623 337.106L362.111 335.243L359.772 333.294C357.156 331.025 354.789 328.483 352.711 325.713L351.022 323.374L350.242 322.161C349.722 321.338 349.242 320.515 348.769 319.649C348.296 318.783 347.859 317.96 347.426 317.049C346.993 316.138 346.603 315.273 346.213 314.407C345.823 313.541 345.823 313.497 345.65 313.064C345.303 312.154 344.957 311.201 344.61 310.248C344.263 309.295 343.7 307.432 343.31 305.916C342.92 304.4 342.79 303.967 342.574 302.97C342.358 301.973 342.357 301.93 342.227 301.454C341.967 300.198 341.707 298.941 341.491 297.599C341.275 296.257 341.101 294.999 340.928 293.699C340.668 291.576 340.451 289.367 340.322 287.244C340.357 285.565 340.271 283.885 340.062 282.219V280.356C339.76 276.673 339.717 272.211 339.76 267.576ZM409.07 277.713C409.07 281.313 411.583 282.738 414.701 280.962C416.334 279.899 417.694 278.468 418.672 276.783C419.651 275.098 420.219 273.207 420.332 271.262V249.602C423.367 245.809 425.126 241.154 425.357 236.302C425.524 234.922 425.286 233.523 424.67 232.276C424.055 231.03 423.089 229.99 421.891 229.284C420.727 228.877 419.481 228.755 418.26 228.929C417.039 229.103 415.877 229.568 414.873 230.284C411.811 232.275 409.262 234.96 407.433 238.121C405.604 241.283 404.546 244.831 404.346 248.478C404.346 252.81 406.295 255.366 409.154 255.886L409.07 277.713Z" fill="url(#paint7_linear)"/>
<path opacity="0.01" d="M405.269 249.216C405.269 253.416 407.148 256.041 409.969 256.537V278.2C409.969 281.736 412.469 283.146 415.509 281.391C417.12 280.343 418.46 278.93 419.423 277.267C420.385 275.604 420.943 273.738 421.049 271.819V250.357C424.017 246.5 426.021 241.58 426.021 237.228C426.021 230.628 421.37 227.951 415.634 231.266C409.916 234.554 405.269 242.616 405.269 249.216Z" fill="#202CD5"/>
<path opacity="0.02" d="M406.059 249.674C406.059 253.874 407.938 256.499 410.759 256.995V278.658C410.759 282.194 413.259 283.604 416.299 281.849C417.91 280.801 419.25 279.388 420.213 277.725C421.175 276.062 421.733 274.195 421.839 272.277V250.81C424.807 246.953 426.811 242.033 426.811 237.681C426.811 231.081 422.16 228.404 416.424 231.719C410.706 235.007 406.059 243.07 406.059 249.674Z" fill="#212ED6"/>
<path opacity="0.03" d="M406.845 250.126C406.845 254.326 408.728 256.951 411.545 257.447V279.109C411.545 282.645 414.039 284.055 417.085 282.299C418.696 281.251 420.036 279.838 420.999 278.175C421.961 276.512 422.519 274.646 422.625 272.727V251.262C425.593 247.405 427.597 242.485 427.597 238.133C427.597 231.533 422.946 228.856 417.21 232.171C411.496 235.459 406.845 243.522 406.845 250.126Z" fill="#2230D6"/>
<path opacity="0.04" d="M407.635 250.579C407.635 254.779 409.514 257.404 412.335 257.9V279.563C412.335 283.1 414.829 284.509 417.875 282.754C419.486 281.706 420.826 280.293 421.789 278.63C422.751 276.967 423.309 275.1 423.415 273.182V251.715C426.379 247.858 428.382 242.938 428.382 238.586C428.382 231.986 423.735 229.309 417.995 232.624C412.286 235.912 407.635 243.975 407.635 250.579Z" fill="#2332D7"/>
<path opacity="0.05" d="M408.421 251.032C408.421 255.232 410.3 257.857 413.121 258.353V280.016C413.121 283.552 415.621 284.962 418.661 283.206C420.272 282.159 421.614 280.746 422.576 279.083C423.539 277.42 424.095 275.553 424.201 273.634V252.168C427.169 248.311 429.173 243.391 429.173 239.039C429.173 232.439 424.526 229.762 418.786 233.076C413.077 236.365 408.421 244.428 408.421 251.032Z" fill="#2434D7"/>
<path opacity="0.059" d="M409.216 251.485C409.216 255.685 411.095 258.31 413.916 258.806V280.469C413.916 284.005 416.416 285.415 419.456 283.66C421.067 282.613 422.409 281.2 423.371 279.537C424.334 277.874 424.89 276.007 424.996 274.088V252.621C427.964 248.764 429.968 243.844 429.968 239.492C429.968 232.892 425.321 230.215 419.581 233.53C413.867 236.818 409.216 244.881 409.216 251.485Z" fill="#2536D7"/>
<path opacity="0.069" d="M410.006 251.937C410.006 256.137 411.885 258.762 414.706 259.258V280.921C414.706 284.458 417.206 285.867 420.246 284.112C421.857 283.064 423.197 281.651 424.16 279.988C425.122 278.325 425.68 276.458 425.786 274.54V253.073C428.754 249.216 430.758 244.296 430.758 239.939C430.758 233.339 426.107 230.666 420.371 233.981C414.657 237.27 410.006 245.334 410.006 251.937Z" fill="#2738D8"/>
<path opacity="0.079" d="M410.796 252.39C410.796 256.59 412.675 259.215 415.496 259.711V281.374C415.496 284.91 417.996 286.32 421.036 284.564C422.647 283.516 423.987 282.103 424.95 280.44C425.912 278.777 426.47 276.911 426.576 274.992V253.526C429.544 249.669 431.548 244.749 431.548 240.392C431.548 233.792 426.897 231.119 421.161 234.434C415.446 237.723 410.796 245.787 410.796 252.39Z" fill="#283AD8"/>
<path opacity="0.089" d="M411.586 252.842C411.586 257.042 413.465 259.667 416.286 260.163V281.826C416.286 285.362 418.786 286.772 421.826 285.017C423.437 283.969 424.777 282.556 425.74 280.893C426.702 279.23 427.26 277.364 427.366 275.445V253.978C430.334 250.121 432.338 245.197 432.338 240.844C432.338 234.244 427.687 231.571 421.951 234.886C416.233 238.175 411.586 246.239 411.586 252.842Z" fill="#293CD9"/>
<path opacity="0.099" d="M412.376 253.295C412.376 257.495 414.255 260.12 417.076 260.616V282.279C417.076 285.815 419.576 287.225 422.616 285.47C424.227 284.422 425.567 283.009 426.53 281.346C427.492 279.683 428.05 277.817 428.156 275.898V254.436C431.124 250.579 433.128 245.655 433.128 241.302C433.128 234.702 428.477 232.029 422.741 235.344C417.023 238.628 412.376 246.692 412.376 253.295Z" fill="#2A3ED9"/>
<path opacity="0.109" d="M413.166 253.748C413.166 257.948 415.045 260.573 417.866 261.064V282.731C417.866 286.268 420.366 287.677 423.406 285.922C425.017 284.874 426.357 283.461 427.32 281.798C428.282 280.135 428.84 278.269 428.946 276.35V254.883C431.914 251.026 433.918 246.102 433.918 241.749C433.918 235.149 429.267 232.476 423.531 235.791C417.813 239.083 413.166 247.145 413.166 253.748Z" fill="#2B40DA"/>
<path opacity="0.119" d="M413.952 254.196C413.952 258.403 415.836 261.026 418.652 261.517V283.184C418.652 286.72 421.146 288.13 424.192 286.375C425.803 285.327 427.143 283.914 428.106 282.251C429.068 280.588 429.626 278.721 429.732 276.803V255.336C432.7 251.479 434.704 246.555 434.704 242.202C434.704 235.602 430.053 232.929 424.317 236.244C418.603 239.529 413.952 247.593 413.952 254.196Z" fill="#2C42DA"/>
<path opacity="0.129" d="M414.742 254.649C414.742 258.856 416.621 261.479 419.442 261.97V283.637C419.442 287.173 421.936 288.583 424.982 286.828C426.592 285.78 427.933 284.367 428.895 282.704C429.858 281.041 430.415 279.174 430.522 277.256V255.789C433.486 251.928 435.489 247.008 435.489 242.655C435.489 236.055 430.842 233.382 425.102 236.697C419.393 239.986 414.742 248.046 414.742 254.649Z" fill="#2D44DA"/>
<path opacity="0.139" d="M415.533 255.102C415.533 259.309 417.412 261.927 420.233 262.423V284.09C420.233 287.626 422.733 289.036 425.773 287.281C427.384 286.233 428.725 284.82 429.687 283.157C430.65 281.494 431.207 279.628 431.313 277.709V256.242C434.281 252.381 436.285 247.461 436.285 243.108C436.285 236.508 431.638 233.835 425.898 237.15C420.184 240.439 415.533 248.499 415.533 255.102Z" fill="#2E46DB"/>
<path opacity="0.149" d="M416.323 255.555C416.323 259.762 418.202 262.38 421.023 262.876V284.543C421.023 288.079 423.523 289.489 426.563 287.729C428.174 286.683 429.515 285.271 430.478 283.608C431.44 281.946 431.997 280.08 432.103 278.162V256.695C435.071 252.834 437.075 247.914 437.075 243.561C437.075 236.961 432.428 234.288 426.688 237.603C420.974 240.892 416.323 248.952 416.323 255.555Z" fill="#2F48DB"/>
<path opacity="0.158" d="M417.113 256.007C417.113 260.214 418.992 262.832 421.813 263.328V284.991C421.813 288.527 424.313 289.941 427.353 288.181C428.963 287.134 430.304 285.722 431.267 284.06C432.229 282.398 432.786 280.532 432.893 278.614V257.147C435.861 253.286 437.865 248.366 437.865 244.013C437.865 237.413 433.214 234.74 427.478 238.05C421.764 241.344 417.113 249.404 417.113 256.007Z" fill="#304ADC"/>
<path opacity="0.168" d="M417.903 256.462C417.903 260.669 419.782 263.287 422.603 263.783V285.446C422.603 288.982 425.103 290.392 428.143 288.637C429.754 287.589 431.095 286.177 432.058 284.513C433.02 282.85 433.577 280.984 433.683 279.065V257.6C436.651 253.739 438.655 248.819 438.655 244.466C438.655 237.866 434.004 235.193 428.268 238.504C422.55 241.797 417.903 249.857 417.903 256.462Z" fill="#314CDC"/>
<path opacity="0.178" d="M418.692 256.913C418.692 261.113 420.571 263.738 423.392 264.234V285.897C423.392 289.433 425.892 290.843 428.932 289.088C430.543 288.04 431.883 286.627 432.846 284.964C433.808 283.301 434.366 281.434 434.472 279.516V258.049C437.44 254.192 439.444 249.272 439.444 244.92C439.444 238.32 434.793 235.643 429.057 238.958C423.34 242.246 418.692 250.307 418.692 256.913Z" fill="#324EDC"/>
<path opacity="0.188" d="M419.483 257.366C419.483 261.566 421.362 264.191 424.183 264.687V286.354C424.183 289.891 426.683 291.3 429.723 289.545C431.334 288.497 432.674 287.084 433.637 285.421C434.599 283.758 435.157 281.891 435.263 279.973V258.502C438.231 254.645 440.235 249.725 440.235 245.373C440.235 238.773 435.584 236.096 429.848 239.41C424.13 242.699 419.483 250.762 419.483 257.366Z" fill="#3450DD"/>
<path opacity="0.198" d="M420.274 257.819C420.274 262.019 422.153 264.644 424.974 265.14V286.801C424.974 290.337 427.474 291.747 430.514 289.992C432.125 288.944 433.465 287.531 434.428 285.868C435.39 284.205 435.948 282.338 436.054 280.42V258.955C439.022 255.098 441.026 250.178 441.026 245.826C441.026 239.226 436.375 236.549 430.639 239.864C424.921 243.152 420.274 251.215 420.274 257.819Z" fill="#3552DD"/>
<path opacity="0.208" d="M421.059 258.272C421.059 262.472 422.943 265.097 425.759 265.593V287.256C425.759 290.792 428.253 292.202 431.299 290.446C432.91 289.398 434.25 287.985 435.213 286.322C436.175 284.659 436.733 282.793 436.839 280.874V259.408C439.813 255.548 441.813 250.631 441.813 246.278C441.813 239.678 437.162 237.001 431.426 240.316C425.713 243.605 421.059 251.668 421.059 258.272Z" fill="#3654DE"/>
<path opacity="0.218" d="M421.85 258.724C421.85 262.924 423.729 265.549 426.55 266.045V287.708C426.55 291.244 429.044 292.654 432.09 290.899C433.701 289.851 435.041 288.438 436.004 286.775C436.966 285.112 437.524 283.246 437.63 281.327V259.86C440.594 256.003 442.597 251.083 442.597 246.731C442.597 240.131 437.95 237.454 432.21 240.768C426.501 244.057 421.85 252.12 421.85 258.724Z" fill="#3756DE"/>
<path opacity="0.228" d="M422.64 259.177C422.64 263.377 424.519 266.002 427.34 266.498V288.161C427.34 291.697 429.84 293.107 432.88 291.352C434.491 290.305 435.833 288.892 436.795 287.229C437.758 285.566 438.314 283.699 438.42 281.78V260.313C441.388 256.456 443.392 251.536 443.392 247.184C443.392 240.584 438.745 237.907 433.005 241.222C427.291 244.51 422.64 252.573 422.64 259.177Z" fill="#3858DF"/>
<path opacity="0.238" d="M423.43 259.629C423.43 263.829 425.309 266.454 428.13 266.95V288.613C428.13 292.149 430.63 293.559 433.67 291.803C435.281 290.755 436.621 289.342 437.584 287.679C438.546 286.016 439.104 284.15 439.21 282.231V260.765C442.178 256.908 444.182 251.988 444.182 247.631C444.182 241.031 439.535 238.358 433.795 241.673C428.081 244.962 423.43 253.026 423.43 259.629Z" fill="#395ADF"/>
<path opacity="0.248" d="M424.22 260.082C424.22 264.282 426.099 266.907 428.92 267.403V289.066C428.92 292.602 431.42 294.012 434.46 292.257C436.071 291.209 437.411 289.796 438.374 288.133C439.336 286.47 439.894 284.604 440 282.685V261.218C442.968 257.361 444.972 252.437 444.972 248.084C444.972 241.484 440.321 238.811 434.585 242.126C428.871 245.415 424.22 253.479 424.22 260.082Z" fill="#3A5CDF"/>
<path opacity="0.257" d="M425.01 260.535C425.01 264.735 426.889 267.36 429.71 267.856V289.519C429.71 293.055 432.21 294.465 435.25 292.71C436.861 291.662 438.201 290.249 439.164 288.586C440.126 286.923 440.684 285.057 440.79 283.138V261.671C443.758 257.814 445.762 252.89 445.762 248.537C445.762 241.937 441.111 239.264 435.375 242.579C429.657 245.868 425.01 253.932 425.01 260.535Z" fill="#3B5EE0"/>
<path opacity="0.267" d="M425.8 260.987C425.8 265.187 427.679 267.812 430.5 268.303V289.97C430.5 293.507 433 294.916 436.04 293.161C437.651 292.113 438.991 290.7 439.954 289.037C440.916 287.374 441.474 285.507 441.58 283.589V262.127C444.548 258.27 446.552 253.346 446.552 248.993C446.552 242.393 441.901 239.72 436.165 243.035C430.447 246.32 425.8 254.384 425.8 260.987Z" fill="#3C60E0"/>
<path opacity="0.277" d="M426.59 261.436C426.59 265.643 428.469 268.266 431.29 268.757V290.424C431.29 293.96 433.79 295.37 436.83 293.615C438.441 292.567 439.781 291.154 440.744 289.491C441.706 287.828 442.264 285.961 442.37 284.043V262.574C445.338 258.717 447.342 253.793 447.342 249.44C447.342 242.84 442.691 240.167 436.955 243.482C431.238 246.774 426.59 254.833 426.59 261.436Z" fill="#3D62E1"/>
<path opacity="0.287" d="M427.381 261.889C427.381 266.096 429.26 268.719 432.081 269.21V290.877C432.081 294.413 434.581 295.823 437.621 294.068C439.232 293.02 440.572 291.607 441.535 289.944C442.497 288.281 443.055 286.415 443.161 284.496V263.029C446.129 259.168 448.133 254.248 448.133 249.895C448.133 243.295 443.482 240.622 437.746 243.937C432.028 247.226 427.381 255.286 427.381 261.889Z" fill="#3E64E1"/>
<path opacity="0.297" d="M428.167 262.341C428.167 266.548 430.051 269.166 432.867 269.662V291.329C432.867 294.865 435.361 296.275 438.407 294.52C440.017 293.471 441.358 292.059 442.32 290.396C443.283 288.733 443.84 286.866 443.947 284.948V263.481C446.911 259.62 448.919 254.7 448.919 250.347C448.919 243.747 444.268 241.074 438.532 244.389C432.818 247.678 428.167 255.738 428.167 262.341Z" fill="#3F66E1"/>
<path opacity="0.307" d="M428.959 262.794C428.959 267.001 430.838 269.619 433.659 270.115V291.782C433.659 295.318 436.159 296.728 439.203 294.968C440.813 293.921 442.154 292.509 443.117 290.847C444.079 289.185 444.636 287.319 444.743 285.401V263.934C447.707 260.073 449.71 255.153 449.71 250.8C449.71 244.2 445.063 241.527 439.323 244.842C433.608 248.131 428.959 256.191 428.959 262.794Z" fill="#4068E2"/>
<path opacity="0.317" d="M429.747 263.247C429.747 267.454 431.626 270.072 434.447 270.568V292.231C434.447 295.767 436.947 297.181 439.987 295.422C441.598 294.376 442.939 292.964 443.902 291.301C444.865 289.639 445.421 287.773 445.527 285.855V264.387C448.495 260.526 450.499 255.606 450.499 251.253C450.499 244.653 445.852 241.98 440.112 245.295C434.398 248.584 429.747 256.644 429.747 263.247Z" fill="#426AE2"/>
<path opacity="0.327" d="M430.537 263.7C430.537 267.907 432.416 270.525 435.237 271.021V292.684C435.237 296.22 437.737 297.63 440.777 295.875C442.387 294.828 443.728 293.416 444.691 291.754C445.653 290.092 446.21 288.226 446.317 286.308V264.841C449.285 260.98 451.289 256.06 451.289 251.707C451.289 245.107 446.642 242.434 440.902 245.745C435.188 249.037 430.537 257.097 430.537 263.7Z" fill="#436CE3"/>
<path opacity="0.337" d="M431.327 264.152C431.327 268.352 433.206 270.977 436.027 271.473V293.136C436.027 296.672 438.527 298.082 441.567 296.327C443.178 295.279 444.518 293.866 445.481 292.203C446.443 290.54 447.001 288.673 447.107 286.755V265.289C450.075 261.432 452.079 256.512 452.079 252.16C452.079 245.56 447.428 242.883 441.692 246.198C435.978 249.486 431.327 257.552 431.327 264.152Z" fill="#446EE3"/>
<path opacity="0.347" d="M432.117 264.606C432.117 268.806 433.996 271.431 436.817 271.927V293.589C436.817 297.126 439.317 298.535 442.357 296.78C443.968 295.732 445.308 294.319 446.271 292.656C447.233 290.993 447.791 289.126 447.897 287.208V265.742C450.865 261.885 452.869 256.965 452.869 252.613C452.869 246.013 448.218 243.336 442.482 246.65C436.759 249.939 432.117 257.999 432.117 264.606Z" fill="#4570E4"/>
<path opacity="0.356" d="M432.908 265.058C432.908 269.258 434.787 271.883 437.608 272.379V294.045C437.608 297.581 440.108 298.991 443.148 297.236C444.759 296.188 446.099 294.775 447.062 293.112C448.024 291.449 448.582 289.582 448.688 287.664V266.194C451.656 262.337 453.66 257.417 453.66 253.065C453.66 246.465 449.009 243.788 443.273 247.103C437.555 250.391 432.908 258.454 432.908 265.058Z" fill="#4672E4"/>
<path opacity="0.366" d="M433.698 265.511C433.698 269.711 435.577 272.336 438.398 272.832V294.492C438.398 298.028 440.898 299.438 443.938 297.683C445.549 296.635 446.889 295.222 447.852 293.559C448.814 291.896 449.372 290.03 449.478 288.111V266.647C452.446 262.79 454.45 257.87 454.45 253.518C454.45 246.918 449.799 244.241 444.063 247.556C438.345 250.844 433.698 258.907 433.698 265.511Z" fill="#4774E4"/>
<path opacity="0.376" d="M434.485 265.964C434.485 270.164 436.364 272.789 439.185 273.285V294.948C439.185 298.484 441.685 299.894 444.725 298.139C446.336 297.091 447.676 295.678 448.639 294.015C449.601 292.352 450.159 290.486 450.265 288.567V267.1C453.233 263.243 455.237 258.323 455.237 253.971C455.237 247.371 450.586 244.694 444.85 248.008C439.135 251.297 434.485 259.36 434.485 265.964Z" fill="#4876E5"/>
<path opacity="0.386" d="M435.274 266.417C435.274 270.617 437.158 273.242 439.974 273.738V295.401C439.974 298.937 442.468 300.347 445.514 298.592C447.125 297.544 448.465 296.131 449.428 294.468C450.39 292.805 450.948 290.939 451.054 289.02V267.553C454.018 263.696 456.026 258.776 456.026 254.424C456.026 247.824 451.375 245.147 445.639 248.462C439.925 251.75 435.274 259.813 435.274 266.417Z" fill="#4978E5"/>
<path opacity="0.396" d="M436.064 266.869C436.064 271.069 437.943 273.694 440.764 274.19V295.853C440.764 299.389 443.264 300.799 446.308 299.043C447.919 297.995 449.259 296.582 450.222 294.919C451.184 293.256 451.742 291.39 451.848 289.471V268.005C454.812 264.148 456.815 259.228 456.815 254.871C456.815 248.271 452.168 245.598 446.428 248.913C440.715 252.202 436.064 260.266 436.064 266.869Z" fill="#4A7AE6"/>
<path opacity="0.406" d="M436.854 267.321C436.854 271.521 438.733 274.146 441.554 274.642V296.305C441.554 299.842 444.054 301.251 447.094 299.496C448.705 298.449 450.047 297.036 451.009 295.373C451.972 293.71 452.528 291.843 452.634 289.924V268.457C455.6 264.601 457.605 259.678 457.605 255.324C457.605 248.724 452.958 246.051 447.218 249.366C441.505 252.654 436.854 260.718 436.854 267.321Z" fill="#4B7CE6"/>
<path opacity="0.416" d="M437.644 267.774C437.644 271.974 439.523 274.599 442.344 275.095V296.758C442.344 300.295 444.844 301.704 447.884 299.949C449.495 298.901 450.835 297.488 451.798 295.825C452.76 294.162 453.318 292.296 453.424 290.377V268.91C456.392 265.053 458.396 260.129 458.396 255.776C458.396 249.176 453.749 246.503 448.009 249.818C442.295 253.107 437.644 261.171 437.644 267.774Z" fill="#4C7EE6"/>
<path opacity="0.426" d="M438.434 268.227C438.434 272.427 440.313 275.052 443.134 275.548V297.211C443.134 300.747 445.634 302.157 448.674 300.402C450.285 299.354 451.625 297.941 452.588 296.278C453.55 294.615 454.108 292.749 454.214 290.83V269.363C457.182 265.506 459.186 260.582 459.186 256.229C459.186 249.629 454.535 246.956 448.799 250.271C443.085 253.56 438.434 261.624 438.434 268.227Z" fill="#4D80E7"/>
<path opacity="0.436" d="M439.225 268.68C439.225 272.88 441.104 275.505 443.925 275.996V297.663C443.925 301.199 446.425 302.609 449.465 300.854C451.076 299.806 452.416 298.393 453.379 296.73C454.341 295.067 454.899 293.201 455.005 291.282V269.819C457.973 265.962 459.977 261.038 459.977 256.685C459.977 250.085 455.326 247.412 449.59 250.727C443.872 254.013 439.225 262.077 439.225 268.68Z" fill="#4E82E7"/>
<path opacity="0.446" d="M440.015 269.128C440.015 273.335 441.894 275.957 444.715 276.449V298.116C444.715 301.652 447.215 303.062 450.255 301.307C451.866 300.259 453.206 298.846 454.169 297.183C455.131 295.52 455.689 293.654 455.795 291.735V270.265C458.763 266.408 460.767 261.484 460.767 257.131C460.767 250.531 456.116 247.858 450.38 251.173C444.662 254.465 440.015 262.525 440.015 269.128Z" fill="#5084E8"/>
<path opacity="0.455" d="M440.805 269.581C440.805 273.788 442.684 276.411 445.505 276.902V298.569C445.505 302.105 448.005 303.515 451.045 301.76C452.655 300.711 453.996 299.299 454.958 297.636C455.921 295.973 456.478 294.106 456.585 292.188V270.721C459.553 266.86 461.557 261.94 461.557 257.587C461.557 250.987 456.906 248.314 451.17 251.629C445.452 254.918 440.805 262.978 440.805 269.581Z" fill="#5186E8"/>
<path opacity="0.465" d="M441.595 270.034C441.595 274.241 443.474 276.859 446.295 277.355V299.022C446.295 302.558 448.795 303.968 451.835 302.213C453.445 301.165 454.786 299.752 455.748 298.089C456.711 296.426 457.268 294.559 457.375 292.641V271.174C460.343 267.313 462.347 262.393 462.347 258.04C462.347 251.44 457.696 248.767 451.96 252.082C446.242 255.371 441.595 263.431 441.595 270.034Z" fill="#5288E9"/>
<path opacity="0.475" d="M442.381 270.487C442.381 274.694 444.26 277.312 447.081 277.808V299.475C447.081 303.011 449.575 304.421 452.621 302.661C454.231 301.614 455.572 300.202 456.535 298.54C457.497 296.877 458.054 295.012 458.161 293.094V271.627C461.126 267.766 463.126 262.846 463.126 258.494C463.126 251.894 458.479 249.221 452.743 252.536C447.032 255.824 442.381 263.884 442.381 270.487Z" fill="#538AE9"/>
<path opacity="0.485" d="M443.171 270.939C443.171 275.146 445.05 277.764 447.871 278.26V299.923C447.871 303.459 450.371 304.873 453.415 303.114C455.025 302.067 456.366 300.655 457.329 298.993C458.291 297.331 458.848 295.465 458.955 293.547V272.08C461.919 268.219 463.922 263.299 463.922 258.946C463.922 252.346 459.275 249.673 453.535 252.984C447.822 256.276 443.171 264.336 443.171 270.939Z" fill="#548CE9"/>
<path opacity="0.495" d="M443.961 271.396C443.961 275.596 445.84 278.221 448.661 278.717V300.38C448.661 303.916 451.161 305.326 454.201 303.571C455.812 302.524 457.154 301.111 458.116 299.448C459.079 297.785 459.635 295.918 459.741 293.999V272.532C462.709 268.671 464.713 263.751 464.713 259.398C464.713 252.798 460.066 250.121 454.326 253.436C448.612 256.725 443.961 264.788 443.961 271.396Z" fill="#558EEA"/>
<path opacity="0.505" d="M444.751 271.843C444.751 276.043 446.63 278.668 449.451 279.164V300.827C449.451 304.363 451.951 305.773 454.991 304.017C456.602 302.969 457.942 301.556 458.905 299.893C459.867 298.23 460.425 296.363 460.531 294.445V272.981C463.499 269.124 465.503 264.204 465.503 259.852C465.503 253.252 460.856 250.575 455.116 253.889C449.402 257.178 444.751 265.243 444.751 271.843Z" fill="#5690EA"/>
<path opacity="0.515" d="M445.541 272.298C445.541 276.498 447.42 279.123 450.241 279.619V301.282C450.241 304.819 452.741 306.228 455.781 304.473C457.392 303.425 458.732 302.012 459.695 300.349C460.657 298.686 461.215 296.819 461.321 294.901V273.434C464.289 269.577 466.293 264.657 466.293 260.305C466.293 253.705 461.642 251.028 455.906 254.343C450.192 257.631 445.541 265.69 445.541 272.298Z" fill="#5792EB"/>
<path opacity="0.525" d="M446.332 272.751C446.332 276.951 448.211 279.576 451.032 280.072V301.737C451.032 305.273 453.532 306.683 456.572 304.928C458.183 303.88 459.523 302.467 460.486 300.804C461.448 299.141 462.006 297.275 462.112 295.356V273.887C465.08 270.03 467.084 265.11 467.084 260.758C467.084 254.158 462.433 251.481 456.697 254.796C450.979 258.084 446.332 266.147 446.332 272.751Z" fill="#5894EB"/>
<path opacity="0.535" d="M447.122 273.203C447.122 277.403 449.001 280.028 451.822 280.524V302.183C451.822 305.719 454.322 307.129 457.362 305.374C458.973 304.326 460.313 302.913 461.276 301.25C462.238 299.587 462.796 297.721 462.902 295.802V274.339C465.87 270.482 467.874 265.562 467.874 261.21C467.874 254.61 463.223 251.933 457.487 255.247C451.769 258.536 447.122 266.599 447.122 273.203Z" fill="#5996EB"/>
<path opacity="0.545" d="M447.912 273.656C447.912 277.856 449.791 280.481 452.612 280.977V302.64C452.612 306.176 455.112 307.586 458.152 305.831C459.763 304.783 461.103 303.37 462.066 301.707C463.028 300.044 463.586 298.178 463.692 296.259V274.792C466.66 270.935 468.664 266.015 468.664 261.663C468.664 255.063 464.013 252.386 458.277 255.701C452.559 258.989 447.912 267.052 447.912 273.656Z" fill="#5A98EC"/>
<path opacity="0.554" d="M448.702 274.108C448.702 278.308 450.581 280.933 453.402 281.429V303.092C453.402 306.628 455.902 308.038 458.942 306.282C460.553 305.234 461.893 303.821 462.856 302.158C463.818 300.495 464.376 298.629 464.482 296.71V275.244C467.45 271.387 469.454 266.467 469.454 262.11C469.454 255.51 464.803 252.837 459.067 256.152C453.349 259.441 448.702 267.505 448.702 274.108Z" fill="#5B9AEC"/>
<path opacity="0.564" d="M449.488 274.561C449.488 278.761 451.367 281.386 454.188 281.882V303.545C454.188 307.082 456.682 308.491 459.728 306.736C461.339 305.688 462.679 304.275 463.642 302.612C464.604 300.949 465.162 299.083 465.268 297.164V275.697C468.232 271.84 470.235 266.92 470.235 262.563C470.235 255.963 465.588 253.29 459.852 256.605C454.139 259.894 449.488 267.958 449.488 274.561Z" fill="#5D9CED"/>
<path opacity="0.574" d="M450.278 275.014C450.278 279.214 452.157 281.839 454.978 282.335V303.998C454.978 307.534 457.478 308.944 460.522 307.189C462.133 306.141 463.473 304.728 464.436 303.065C465.398 301.402 465.956 299.536 466.062 297.617V276.15C469.026 272.293 471.029 267.369 471.029 263.016C471.029 256.416 466.382 253.743 460.642 257.058C454.929 260.347 450.278 268.411 450.278 275.014Z" fill="#5E9EED"/>
<path opacity="0.584" d="M451.068 275.466C451.068 279.666 452.947 282.291 455.768 282.787V304.45C455.768 307.986 458.268 309.396 461.308 307.641C462.919 306.594 464.261 305.181 465.223 303.518C466.186 301.855 466.742 299.988 466.848 298.069V276.602C469.816 272.745 471.82 267.821 471.82 263.468C471.82 256.868 467.173 254.195 461.433 257.51C455.719 260.799 451.068 268.863 451.068 275.466Z" fill="#5FA0EE"/>
<path opacity="0.594" d="M451.858 275.919C451.858 280.119 453.737 282.744 456.558 283.235V304.903C456.558 308.439 459.058 309.849 462.098 308.093C463.709 307.045 465.049 305.632 466.012 303.969C466.974 302.306 467.532 300.439 467.638 298.521V277.055C470.606 273.198 472.61 268.274 472.61 263.921C472.61 257.321 467.963 254.648 462.223 257.963C456.509 261.252 451.858 269.316 451.858 275.919Z" fill="#60A2EE"/>
<path opacity="0.604" d="M452.649 276.368C452.649 280.575 454.528 283.198 457.349 283.689V305.356C457.349 308.892 459.849 310.302 462.889 308.547C464.5 307.499 465.84 306.086 466.803 304.423C467.765 302.76 468.323 300.894 468.429 298.975V277.51C471.398 273.652 473.398 268.727 473.398 264.375C473.398 257.775 468.747 255.102 463.011 258.417C457.298 261.71 452.649 269.765 452.649 276.368Z" fill="#61A4EE"/>
<path opacity="0.614" d="M453.439 276.821C453.439 281.028 455.318 283.651 458.139 284.142V305.809C458.139 309.346 460.639 310.755 463.679 309C465.29 307.952 466.63 306.539 467.593 304.876C468.555 303.213 469.113 301.347 469.219 299.428V277.957C472.187 274.096 474.191 269.176 474.191 264.823C474.191 258.223 469.54 255.55 463.804 258.865C458.086 262.157 453.439 270.218 453.439 276.821Z" fill="#62A6EF"/>
<path opacity="0.624" d="M454.229 277.273C454.229 281.48 456.108 284.098 458.929 284.594V306.261C458.929 309.797 461.429 311.207 464.469 309.452C466.079 308.404 467.42 306.991 468.382 305.328C469.345 303.665 469.902 301.798 470.009 299.88V278.413C472.977 274.552 474.981 269.632 474.981 265.279C474.981 258.679 470.33 256.006 464.594 259.321C458.876 262.61 454.229 270.67 454.229 277.273Z" fill="#63A8EF"/>
<path opacity="0.634" d="M455.023 277.726C455.023 281.933 456.902 284.551 459.723 285.047V306.714C459.723 310.25 462.223 311.66 465.263 309.9C466.873 308.853 468.214 307.441 469.177 305.779C470.139 304.116 470.696 302.251 470.803 300.333V278.866C473.771 275.005 475.775 270.085 475.775 265.732C475.775 259.132 471.124 256.459 465.388 259.774C459.666 263.063 455.023 271.123 455.023 277.726Z" fill="#64AAF0"/>
<path opacity="0.644" d="M455.809 278.179C455.809 282.386 457.688 285.004 460.509 285.5V307.163C460.509 310.699 463.009 312.113 466.049 310.354C467.659 309.307 469 307.895 469.963 306.233C470.925 304.571 471.482 302.705 471.589 300.787V279.32C474.557 275.459 476.561 270.539 476.561 266.186C476.561 259.586 471.91 256.913 466.174 260.224C460.456 263.516 455.809 271.576 455.809 278.179Z" fill="#65ACF0"/>
<path opacity="0.653" d="M456.595 278.631C456.595 282.838 458.474 285.456 461.295 285.952V307.615C461.295 311.151 463.789 312.561 466.835 310.806C468.445 309.759 469.786 308.347 470.749 306.685C471.711 305.022 472.268 303.157 472.375 301.239V279.771C475.339 275.91 477.342 270.99 477.342 266.637C477.342 260.037 472.695 257.364 466.959 260.675C461.246 263.968 456.595 272.028 456.595 278.631Z" fill="#66AEF0"/>
<path opacity="0.663" d="M457.385 279.088C457.385 283.288 459.264 285.913 462.085 286.409V308.068C462.085 311.604 464.585 313.014 467.625 311.259C469.236 310.212 470.578 308.799 471.541 307.136C472.503 305.473 473.061 303.607 473.167 301.688V280.221C476.131 276.364 478.134 271.444 478.134 267.092C478.134 260.492 473.487 257.815 467.747 261.13C462.036 264.418 457.385 272.481 457.385 279.088Z" fill="#67B0F1"/>
<path opacity="0.673" d="M458.175 279.534C458.175 283.734 460.054 286.359 462.875 286.855V308.518C462.875 312.054 465.375 313.464 468.415 311.709C470.026 310.662 471.368 309.249 472.33 307.586C473.293 305.923 473.849 304.056 473.955 302.137V280.673C476.923 276.816 478.927 271.896 478.927 267.544C478.927 260.944 474.28 258.267 468.54 261.582C462.826 264.87 458.175 272.934 458.175 279.534Z" fill="#68B2F1"/>
<path opacity="0.683" d="M458.966 279.99C458.966 284.19 460.845 286.815 463.666 287.311V308.974C463.666 312.51 466.166 313.92 469.206 312.165C470.817 311.117 472.157 309.704 473.12 308.041C474.082 306.378 474.64 304.512 474.746 302.593V281.126C477.714 277.269 479.718 272.349 479.718 267.997C479.718 261.397 475.071 258.72 469.331 262.035C463.617 265.323 458.966 273.386 458.966 279.99Z" fill="#69B4F2"/>
<path opacity="0.693" d="M459.756 280.443C459.756 284.643 461.635 287.268 464.456 287.764V309.428C464.456 312.964 466.956 314.374 469.996 312.619C471.607 311.571 472.947 310.158 473.91 308.495C474.872 306.832 475.43 304.965 475.536 303.047V281.579C478.504 277.722 480.508 272.802 480.508 268.45C480.508 261.85 475.857 259.173 470.121 262.488C464.407 265.776 459.756 273.839 459.756 280.443Z" fill="#6BB6F2"/>
<path opacity="0.703" d="M460.544 280.896C460.544 285.096 462.423 287.721 465.244 288.217V309.875C465.244 313.411 467.744 314.821 470.784 313.065C472.395 312.017 473.735 310.604 474.698 308.941C475.66 307.278 476.218 305.412 476.324 303.493V282.032C479.292 278.175 481.296 273.255 481.296 268.903C481.296 262.303 476.645 259.626 470.909 262.941C465.193 266.229 460.544 274.292 460.544 280.896Z" fill="#6CB8F3"/>
<path opacity="0.713" d="M461.336 281.348C461.336 285.548 463.215 288.173 466.036 288.669V310.331C466.036 313.867 468.536 315.277 471.576 313.522C473.187 312.474 474.527 311.061 475.49 309.398C476.452 307.735 477.01 305.869 477.116 303.95V282.484C480.084 278.627 482.088 273.707 482.088 269.355C482.088 262.755 477.437 260.078 471.701 263.392C465.983 266.681 461.336 274.744 461.336 281.348Z" fill="#6DBAF3"/>
<path opacity="0.723" d="M462.126 281.8C462.126 286 464.005 288.625 466.826 289.121V310.784C466.826 314.321 469.326 315.73 472.366 313.975C473.977 312.927 475.317 311.514 476.28 309.851C477.242 308.188 477.8 306.322 477.906 304.403V282.936C480.874 279.079 482.878 274.159 482.878 269.802C482.878 263.202 478.227 260.529 472.491 263.844C466.773 267.133 462.126 275.197 462.126 281.8Z" fill="#6EBCF3"/>
<path opacity="0.733" d="M462.916 282.253C462.916 286.453 464.795 289.078 467.616 289.574V311.237C467.616 314.774 470.116 316.183 473.156 314.428C474.767 313.38 476.107 311.967 477.07 310.304C478.032 308.641 478.59 306.774 478.696 304.856V283.389C481.664 279.532 483.668 274.608 483.668 270.255C483.668 263.655 479.017 260.982 473.281 264.297C467.563 267.586 462.916 275.65 462.916 282.253Z" fill="#6FBEF4"/>
<path opacity="0.743" d="M463.702 282.706C463.702 286.906 465.581 289.531 468.402 290.027V311.69C468.402 315.226 470.896 316.636 473.942 314.881C475.553 313.833 476.893 312.42 477.856 310.757C478.818 309.094 479.376 307.228 479.482 305.309V283.842C482.446 279.985 484.449 275.061 484.449 270.708C484.449 264.108 479.802 261.435 474.066 264.75C468.353 268.039 463.702 276.103 463.702 282.706Z" fill="#70C0F4"/>
<path opacity="0.752" d="M464.492 283.159C464.492 287.359 466.371 289.984 469.192 290.48V312.143C469.192 315.68 471.692 317.089 474.732 315.334C476.344 314.287 477.686 312.874 478.649 311.211C479.612 309.548 480.17 307.681 480.276 305.762V284.295C483.24 280.438 485.243 275.514 485.243 271.161C485.243 264.561 480.596 261.888 474.856 265.203C469.143 268.492 464.492 276.556 464.492 283.159Z" fill="#71C2F5"/>
<path opacity="0.762" d="M465.283 283.607C465.283 287.814 467.162 290.437 469.983 290.928V312.595C469.983 316.131 472.483 317.541 475.523 315.786C477.134 314.739 478.476 313.326 479.438 311.663C480.401 310 480.957 308.133 481.063 306.214V284.747C484.031 280.89 486.035 275.966 486.035 271.613C486.035 265.013 481.388 262.34 475.648 265.655C469.934 268.944 465.283 277.004 465.283 283.607Z" fill="#72C4F5"/>
<path opacity="0.772" d="M466.073 284.06C466.073 288.267 467.952 290.89 470.773 291.381V313.048C470.773 316.584 473.273 317.994 476.313 316.238C477.924 315.19 479.264 313.777 480.227 312.114C481.189 310.451 481.747 308.584 481.853 306.666V285.201C484.821 281.344 486.825 276.42 486.825 272.067C486.825 265.467 482.178 262.794 476.438 266.109C470.724 269.401 466.073 277.457 466.073 284.06Z" fill="#73C6F5"/>
<path opacity="0.782" d="M466.863 284.513C466.863 288.72 468.742 291.343 471.563 291.834V313.501C471.563 317.037 474.063 318.447 477.103 316.692C478.713 315.644 480.054 314.231 481.016 312.568C481.979 310.905 482.536 309.038 482.643 307.12V285.653C485.611 281.792 487.615 276.872 487.615 272.519C487.615 265.919 482.964 263.246 477.228 266.561C471.514 269.848 466.863 277.91 466.863 284.513Z" fill="#74C8F6"/>
<path opacity="0.792" d="M467.653 284.966C467.653 289.173 469.532 291.791 472.353 292.287V313.954C472.353 317.49 474.853 318.9 477.893 317.144C479.503 316.095 480.844 314.683 481.806 313.02C482.769 311.357 483.326 309.49 483.433 307.572V286.106C486.401 282.245 488.405 277.325 488.405 272.972C488.405 266.372 483.754 263.699 478.018 267.014C472.3 270.303 467.653 278.363 467.653 284.966Z" fill="#75CAF6"/>
<path opacity="0.802" d="M468.443 285.418C468.443 289.625 470.322 292.243 473.143 292.739V314.406C473.143 317.943 475.643 319.352 478.683 317.592C480.293 316.545 481.634 315.133 482.597 313.471C483.559 311.809 484.116 309.943 484.223 308.025V286.558C487.191 282.697 489.195 277.777 489.195 273.424C489.195 266.824 484.544 264.151 478.808 267.466C473.09 270.755 468.443 278.815 468.443 285.418Z" fill="#76CCF7"/>
<path opacity="0.812" d="M469.233 285.871C469.233 290.078 471.112 292.696 473.933 293.192V314.855C473.933 318.392 476.433 319.805 479.473 318.046C481.083 316.999 482.424 315.587 483.387 313.925C484.349 312.262 484.906 310.397 485.013 308.479V287.012C487.981 283.151 489.985 278.231 489.985 273.878C489.985 267.278 485.334 264.605 479.598 267.916C473.88 271.208 469.233 279.268 469.233 285.871Z" fill="#77CEF7"/>
<path opacity="0.822" d="M470.024 286.324C470.024 290.524 471.903 293.149 474.724 293.645V315.308C474.724 318.844 477.224 320.254 480.264 318.498C481.875 317.45 483.215 316.037 484.178 314.374C485.14 312.711 485.698 310.844 485.804 308.926V287.46C488.772 283.603 490.776 278.683 490.776 274.331C490.776 267.731 486.125 265.054 480.389 268.368C474.671 271.657 470.024 279.72 470.024 286.324Z" fill="#79D0F8"/>
<path opacity="0.832" d="M470.81 286.779C470.81 290.979 472.689 293.604 475.51 294.1V315.763C475.51 319.299 478.004 320.709 481.05 318.954C482.661 317.906 484.001 316.493 484.964 314.83C485.926 313.167 486.484 311.3 486.59 309.382V287.913C489.554 284.056 491.557 279.136 491.557 274.784C491.557 268.184 486.91 265.507 481.174 268.822C475.46 272.11 470.81 280.173 470.81 286.779Z" fill="#7AD2F8"/>
<path opacity="0.842" d="M471.6 287.226C471.6 291.426 473.479 294.051 476.3 294.547V316.21C476.3 319.746 478.8 321.156 481.84 319.401C483.452 318.354 484.794 316.941 485.757 315.278C486.72 313.615 487.278 311.748 487.384 309.829V288.366C490.348 284.509 492.351 279.589 492.351 275.237C492.351 268.637 487.704 265.96 481.964 269.275C476.251 272.563 471.6 280.626 471.6 287.226Z" fill="#7BD4F8"/>
<path opacity="0.851" d="M472.39 287.682C472.39 291.882 474.269 294.507 477.09 295.003V316.666C477.09 320.203 479.59 321.612 482.63 319.857C484.241 318.81 485.583 317.397 486.545 315.734C487.508 314.071 488.064 312.204 488.17 310.285V288.818C491.138 284.961 493.142 280.041 493.142 275.689C493.142 269.089 488.495 266.412 482.755 269.726C477.041 273.015 472.39 281.078 472.39 287.682Z" fill="#7CD6F9"/>
<path opacity="0.861" d="M473.18 288.135C473.18 292.335 475.059 294.96 477.88 295.456V317.119C477.88 320.655 480.38 322.065 483.42 320.31C485.031 319.262 486.371 317.849 487.334 316.186C488.296 314.523 488.854 312.657 488.96 310.738V289.271C491.928 285.414 493.932 280.494 493.932 276.142C493.932 269.542 489.285 266.865 483.545 270.18C477.836 273.468 473.18 281.531 473.18 288.135Z" fill="#7DD8F9"/>
<path opacity="0.871" d="M473.97 288.588C473.97 292.788 475.849 295.413 478.67 295.909V317.572C478.67 321.108 481.17 322.518 484.21 320.763C485.821 319.715 487.161 318.302 488.124 316.639C489.086 314.976 489.644 313.11 489.75 311.191V289.724C492.718 285.867 494.722 280.947 494.722 276.595C494.722 269.995 490.071 267.318 484.335 270.633C478.621 273.921 473.97 281.984 473.97 288.588Z" fill="#7EDAFA"/>
<path opacity="0.881" d="M474.76 289.04C474.76 293.24 476.639 295.865 479.46 296.361V318.024C479.46 321.56 481.96 322.97 485 321.215C486.611 320.167 487.951 318.754 488.914 317.091C489.876 315.428 490.434 313.562 490.54 311.643V290.176C493.508 286.319 495.512 281.399 495.512 277.042C495.512 270.442 490.861 267.769 485.125 271.084C479.407 274.373 474.76 282.437 474.76 289.04Z" fill="#7FDCFA"/>
<path opacity="0.891" d="M475.55 289.493C475.55 293.693 477.429 296.318 480.25 296.814V318.477C480.25 322.013 482.75 323.423 485.79 321.668C487.401 320.62 488.741 319.207 489.704 317.544C490.666 315.881 491.224 314.015 491.33 312.096V290.629C494.298 286.772 496.302 281.852 496.302 277.495C496.302 270.895 491.651 268.222 485.915 271.537C480.197 274.826 475.55 282.89 475.55 289.493Z" fill="#80DEFA"/>
<path opacity="0.901" d="M476.337 289.945C476.337 294.145 478.216 296.77 481.037 297.266V318.929C481.037 322.465 483.537 323.875 486.577 322.119C488.188 321.071 489.528 319.658 490.491 317.995C491.453 316.332 492.011 314.466 492.117 312.547V291.081C495.085 287.224 497.089 282.3 497.089 277.947C497.089 271.347 492.438 268.674 486.702 271.989C480.988 275.278 476.337 283.342 476.337 289.945Z" fill="#81E0FB"/>
<path opacity="0.911" d="M477.131 290.398C477.131 294.598 479.01 297.223 481.831 297.719V319.382C481.831 322.918 484.331 324.328 487.371 322.573C488.982 321.525 490.322 320.112 491.285 318.449C492.247 316.786 492.805 314.919 492.911 313.001V291.534C495.879 287.677 497.883 282.753 497.883 278.4C497.883 271.8 493.232 269.127 487.496 272.442C481.778 275.731 477.131 283.795 477.131 290.398Z" fill="#82E2FB"/>
<path opacity="0.921" d="M477.917 290.851C477.917 295.051 479.796 297.676 482.617 298.167V319.834C482.617 323.371 485.111 324.78 488.157 323.025C489.768 321.977 491.108 320.564 492.071 318.901C493.033 317.238 493.591 315.372 493.697 313.453V291.987C496.661 288.13 498.664 283.206 498.664 278.853C498.664 272.253 494.017 269.58 488.281 272.895C482.568 276.184 477.917 284.248 477.917 290.851Z" fill="#83E4FC"/>
<path opacity="0.931" d="M478.707 291.3C478.707 295.507 480.586 298.13 483.407 298.621V320.288C483.407 323.824 485.907 325.234 488.947 323.478C490.559 322.431 491.901 321.018 492.864 319.355C493.827 317.692 494.385 315.825 494.491 313.906V292.44C497.455 288.583 499.458 283.659 499.458 279.306C499.458 272.706 494.811 270.033 489.071 273.348C483.357 276.637 478.707 284.697 478.707 291.3Z" fill="#84E6FC"/>
<path opacity="0.941" d="M479.497 291.752C479.497 295.959 481.376 298.582 484.197 299.073V320.74C484.197 324.276 486.697 325.686 489.737 323.931C491.348 322.884 492.69 321.471 493.652 319.808C494.615 318.145 495.171 316.278 495.277 314.359V292.892C498.245 289.031 500.249 284.111 500.249 279.758C500.249 273.158 495.602 270.485 489.862 273.8C484.148 277.092 479.497 285.149 479.497 291.752Z" fill="#86E8FD"/>
<path opacity="0.95" d="M480.287 292.205C480.287 296.412 482.166 299.03 484.987 299.526V321.193C484.987 324.729 487.487 326.139 490.527 324.384C492.137 323.336 493.478 321.923 494.44 320.26C495.403 318.597 495.96 316.73 496.067 314.812V293.345C499.035 289.484 501.039 284.564 501.039 280.211C501.039 273.611 496.392 270.938 490.652 274.253C484.938 277.539 480.287 285.602 480.287 292.205Z" fill="#87EAFD"/>
<path opacity="0.96" d="M481.082 292.658C481.082 296.865 482.961 299.483 485.782 299.979V321.646C485.782 325.182 488.282 326.592 491.322 324.832C492.932 323.785 494.273 322.373 495.236 320.711C496.198 319.049 496.755 317.183 496.862 315.265V293.798C499.83 289.937 501.834 285.017 501.834 280.664C501.834 274.064 497.183 271.391 491.447 274.706C485.728 277.995 481.082 286.055 481.082 292.658Z" fill="#88ECFD"/>
<path opacity="0.97" d="M481.867 293.11C481.867 297.317 483.746 299.935 486.567 300.431V322.094C486.567 325.631 489.067 327.044 492.107 325.285C493.717 324.238 495.058 322.826 496.021 321.164C496.983 319.501 497.54 317.636 497.647 315.718V294.251C500.615 290.39 502.619 285.47 502.619 281.117C502.619 274.517 497.968 271.844 492.232 275.155C486.514 278.447 481.867 286.507 481.867 293.11Z" fill="#89EEFE"/>
<path opacity="0.98" d="M482.657 293.563C482.657 297.77 484.536 300.388 487.357 300.884V322.547C487.357 326.083 489.857 327.493 492.897 325.738C494.507 324.691 495.848 323.279 496.811 321.617C497.773 319.954 498.33 318.089 498.437 316.171V294.703C501.405 290.842 503.409 285.922 503.409 281.569C503.409 274.969 498.758 272.296 493.022 275.606C487.304 278.9 482.657 286.96 482.657 293.563Z" fill="#8AF0FE"/>
<path opacity="0.99" d="M483.448 294.016C483.448 298.216 485.327 300.841 488.148 301.337V323C488.148 326.536 490.648 327.946 493.688 326.191C495.299 325.143 496.639 323.73 497.602 322.067C498.564 320.404 499.122 318.537 499.228 316.619V295.152C502.196 291.295 504.2 286.375 504.2 282.023C504.2 275.423 499.549 272.746 493.813 276.061C488.095 279.349 483.448 287.412 483.448 294.016Z" fill="#8BF2FF"/>
<path d="M484.238 294.47C484.238 298.67 486.117 301.295 488.938 301.791V323.454C488.938 326.99 491.438 328.4 494.478 326.645C496.089 325.597 497.429 324.184 498.392 322.521C499.354 320.858 499.912 318.992 500.018 317.073V295.605C502.986 291.748 504.99 286.828 504.99 282.476C504.99 275.876 500.339 273.199 494.603 276.514C488.883 279.802 484.238 287.87 484.238 294.47Z" fill="#8CF4FF"/>
<path d="M484.238 294.06C484.238 298.26 486.117 300.885 488.938 301.381V323.044C488.938 326.581 491.438 327.99 494.478 326.235C496.089 325.187 497.429 323.774 498.392 322.111C499.354 320.448 499.912 318.582 500.018 316.663V295.2C502.986 291.343 504.99 286.423 504.99 282.071C504.99 275.471 500.339 272.794 494.603 276.109C488.883 279.397 484.238 287.46 484.238 294.06Z" fill="url(#paint8_linear)"/>
<path d="M486.711 295.247C486.711 299.454 488.59 302.072 491.411 302.568V324.235C491.411 327.771 493.911 329.181 496.951 327.421C498.561 326.374 499.902 324.962 500.865 323.3C501.827 321.637 502.384 319.772 502.491 317.854V296.387C505.459 292.526 507.463 287.606 507.463 283.253C507.463 276.653 502.812 273.98 497.076 277.295C491.358 280.584 486.711 288.644 486.711 295.247Z" fill="url(#paint9_linear)"/>
<path d="M100.056 437.166V529.814C100.056 537.574 103.518 542.171 108.473 542.29C106.167 539.43 105.016 535.809 105.249 532.142V439.494C105.332 434.163 106.66 428.926 109.126 424.199C111.593 419.473 115.13 415.388 119.456 412.272L276.934 321.296C278.725 320.177 280.792 319.578 282.904 319.565C281.44 318.159 279.52 317.326 277.493 317.216C275.467 317.106 273.468 317.726 271.86 318.965L114.323 409.944C109.979 413.047 106.425 417.127 103.947 421.856C101.469 426.584 100.136 431.828 100.056 437.166Z" fill="url(#paint10_linear)"/>
<path d="M105.249 439.495V532.262C105.084 535.58 105.983 538.863 107.816 541.634L108.473 542.41C109.937 543.816 111.857 544.649 113.884 544.759C115.91 544.869 117.909 544.249 119.517 543.01L121.31 541.995L179.275 508.565L276.937 451.914C281.27 448.804 284.812 444.722 287.28 439.994C289.747 435.266 291.071 430.025 291.145 424.693V332.041C291.145 324.281 287.683 319.684 282.728 319.565C280.616 319.578 278.549 320.177 276.758 321.296L237.777 343.801L179.81 377.231L162.677 387.141L131.098 405.05L119.159 411.975C114.848 415.153 111.343 419.299 108.928 424.079C106.512 428.859 105.252 434.139 105.25 439.495H105.249Z" fill="url(#paint11_linear)"/>
<path d="M118.442 448.986L226.491 386.604V375.142L118.442 437.524V448.986Z" fill="url(#paint12_linear)"/>
<path d="M120.412 526.471L276.457 436.39V421.227L120.412 511.368V526.471Z" fill="url(#paint13_linear)"/>
<path d="M244.516 418.183L270.961 402.783C272.523 401.685 273.799 400.228 274.682 398.535C275.565 396.842 276.029 394.962 276.035 393.053V370.009C276.035 366.248 273.766 364.517 270.961 366.188L244.337 381.588C242.775 382.686 241.499 384.142 240.616 385.835C239.733 387.528 239.269 389.408 239.263 391.318V414.361C239.445 418.064 241.716 419.795 244.516 418.183Z" fill="url(#paint14_linear)"/>
<g opacity="0.6">
<g opacity="0.23">
<path opacity="0.23" d="M121.307 541.813L179.271 508.383L238.071 343.742L180.171 377.231L121.307 541.813Z" fill="url(#paint15_linear)"/>
</g>
<g opacity="0.6">
<path opacity="0.6" d="M105.249 478.535V532.261C105.084 535.579 105.983 538.862 107.816 541.633L162.975 387.32L131.396 405.229L105.249 478.535Z" fill="url(#paint16_linear)"/>
</g>
</g>
<path d="M97.185 317.793C98.5787 314.871 99.5407 311.763 100.041 308.565L112.388 302.985C111.626 310.193 109.415 317.173 105.888 323.505C102.606 329.316 98.1097 334.352 92.706 338.269V343.718L85.851 347.673V341.916C79.699 344.435 74.8947 344.435 71.438 341.916C69.5431 340.2 68.0843 338.058 67.1825 335.666C66.2808 333.275 65.9622 330.702 66.253 328.163C66.2502 322.26 67.6667 316.443 70.383 311.202C74.4181 304.268 79.6555 298.108 85.85 293.011V271.567C82.77 274.921 80.7919 279.138 80.182 283.651L68.23 288.751C68.9921 282.947 70.92 277.357 73.898 272.317C76.9395 267.238 81.0109 262.852 85.85 259.442V253.991L92.705 250.036V255.485C94.6601 254.234 96.9161 253.534 99.2358 253.456C101.555 253.379 103.853 253.928 105.887 255.046C107.665 256.523 109.044 258.424 109.896 260.573C110.748 262.722 111.046 265.051 110.764 267.346C110.679 273.466 109.175 279.482 106.37 284.922C102.951 291.443 98.3465 297.27 92.792 302.103V325.128C94.5861 322.895 96.0647 320.426 97.186 317.79L97.185 317.793ZM85.716 308.393C83.2317 310.549 81.1617 313.14 79.608 316.039C78.4065 318.329 77.7595 320.87 77.719 323.456C77.6123 324.544 77.7591 325.642 78.148 326.663C78.5368 327.685 79.157 328.602 79.96 329.344C80.788 329.933 81.7592 330.289 82.7719 330.374C83.7845 330.459 84.8014 330.27 85.716 329.827V308.393ZM97.141 279.744C98.0775 277.777 98.5867 275.634 98.635 273.456C98.6936 272.573 98.5762 271.687 98.2895 270.85C98.0028 270.013 97.5526 269.241 96.965 268.579C96.3952 268.022 95.692 267.62 94.9227 267.413C94.1534 267.205 93.3437 267.198 92.571 267.393V286.419C94.4437 284.469 95.9871 282.229 97.141 279.784V279.744Z" fill="url(#paint17_linear)"/>
<path d="M85.909 363.26C117.23 345.107 142.798 300.874 142.798 264.61C142.798 228.346 117.23 213.474 85.824 231.71C54.418 249.946 28.935 294.098 28.935 330.363C28.935 366.628 54.503 381.499 85.909 363.26ZM85.909 234.269C116.079 216.84 140.667 231.03 140.667 265.888C140.667 300.746 116.122 343.274 85.909 360.703C55.696 378.132 31.151 363.942 31.151 329.084C31.151 294.226 55.696 251.698 85.909 234.269Z" fill="url(#paint18_linear)"/>
<path d="M85.91 396.712C133.296 369.354 171.819 302.621 171.819 247.906C171.819 193.191 133.467 170.946 85.91 198.306C38.353 225.666 0 292.395 0 347.11C0 401.825 38.523 424.113 85.91 396.712ZM85.91 202.139C131.421 175.846 168.367 197.239 168.367 249.824C168.367 302.409 131.335 366.585 85.781 392.836C40.227 419.087 3.196 397.736 3.196 345.151C3.196 292.566 40.526 228.436 85.91 202.136V202.139Z" fill="url(#paint19_linear)"/>
<path d="M50.814 156.821L71.823 120.557L88.361 91.963L104.895 101.463L125.904 113.573C130.464 116.215 130.464 124.738 125.904 132.664C121.344 140.59 113.93 144.851 109.37 142.209L100.08 136.84V266.125C99.8619 270.179 98.6911 274.125 96.6624 277.642C94.6337 281.159 91.8043 284.148 88.404 286.366C81.969 290.073 76.728 287.09 76.728 279.633V150.386L67.438 166.494C62.878 174.42 55.464 178.681 50.904 176.039C46.344 173.397 46.259 164.704 50.814 156.821Z" fill="url(#paint20_linear)"/>
<g opacity="0.77">
<g opacity="0.77">
<path opacity="0.77" d="M227.366 314.975L311.803 266.196V259.966L227.366 308.707V314.975Z" fill="url(#paint21_linear)"/>
</g>
<g opacity="0.77">
<path opacity="0.77" d="M227.366 324.87L311.803 276.128V269.86L227.366 318.639V324.87Z" fill="url(#paint22_linear)"/>
</g>
<g opacity="0.77">
<path opacity="0.77" d="M227.366 289.247L311.803 240.468V234.238L227.366 282.98V289.247Z" fill="url(#paint23_linear)"/>
</g>
<g opacity="0.77">
<path opacity="0.77" d="M227.366 299.143L311.803 250.401V244.171L227.366 292.912V299.143Z" fill="url(#paint24_linear)"/>
</g>
</g>
<path opacity="0.85" d="M336.122 74.9609L302.347 94.4609C299.956 95.8416 299.136 98.8996 300.517 101.291C301.898 103.683 304.956 104.502 307.347 103.121L341.122 83.6212C343.514 82.2405 344.333 79.1825 342.952 76.7911C341.572 74.3996 338.514 73.5802 336.122 74.9609Z" fill="url(#paint25_linear)"/>
<defs>
<linearGradient id="paint0_linear" x1="77.6716" y1="462.179" x2="458.058" y2="637.516" gradientUnits="userSpaceOnUse">
<stop stop-color="#250D94"/>
<stop offset="0.473" stop-color="#C9C9FF"/>
<stop offset="1" stop-color="#2D1E70"/>
</linearGradient>
<linearGradient id="paint1_linear" x1="249.168" y1="620.784" x2="299.035" y2="233.513" gradientUnits="userSpaceOnUse">
<stop stop-color="white"/>
<stop offset="0.1" stop-color="#EDEDFF"/>
<stop offset="0.31" stop-color="#BDBDFF"/>
<stop offset="0.61" stop-color="#7070FF"/>
<stop offset="0.98" stop-color="#0707FF"/>
<stop offset="1" stop-color="#0000FF"/>
</linearGradient>
<linearGradient id="paint2_linear" x1="248.874" y1="626.379" x2="296.734" y2="238.652" gradientUnits="userSpaceOnUse">
<stop stop-color="white"/>
<stop offset="0.1" stop-color="#EDEDFF"/>
<stop offset="0.31" stop-color="#BDBDFF"/>
<stop offset="0.61" stop-color="#7070FF"/>
<stop offset="0.98" stop-color="#0707FF"/>
<stop offset="1" stop-color="#0000FF"/>
</linearGradient>
<linearGradient id="paint3_linear" x1="250.899" y1="627.029" x2="298.783" y2="239.286" gradientUnits="userSpaceOnUse">
<stop stop-color="white"/>
<stop offset="0.1" stop-color="#EDEDFF"/>
<stop offset="0.31" stop-color="#BDBDFF"/>
<stop offset="0.61" stop-color="#7070FF"/>
<stop offset="0.98" stop-color="#0707FF"/>
<stop offset="1" stop-color="#0000FF"/>
</linearGradient>
<linearGradient id="paint4_linear" x1="356.371" y1="139.01" x2="156.239" y2="219.98" gradientUnits="userSpaceOnUse">
<stop stop-color="#890DDB"/>
<stop offset="1" stop-color="#5DBEFC"/>
</linearGradient>
<linearGradient id="paint5_linear" x1="377.156" y1="11.7824" x2="67.5712" y2="113.882" gradientUnits="userSpaceOnUse">
<stop stop-color="#9C0EE0"/>
<stop offset="1" stop-color="#6DF7FB"/>
</linearGradient>
<linearGradient id="paint6_linear" x1="322.007" y1="42.1922" x2="127.511" y2="106.164" gradientUnits="userSpaceOnUse">
<stop stop-color="#9C0EE0"/>
<stop offset="1" stop-color="#6DF7FB"/>
</linearGradient>
<linearGradient id="paint7_linear" x1="479.591" y1="216.57" x2="323.168" y2="266.895" gradientUnits="userSpaceOnUse">
<stop stop-color="#9C0EE0"/>
<stop offset="1" stop-color="#230FB9" stop-opacity="0.09"/>
</linearGradient>
<linearGradient id="paint8_linear" x1="497.789" y1="273.379" x2="448.214" y2="317.092" gradientUnits="userSpaceOnUse">
<stop stop-color="#C838E7"/>
<stop offset="0.073" stop-color="#B536E5"/>
<stop offset="0.305" stop-color="#8032DF"/>
<stop offset="0.521" stop-color="#562EDA"/>
<stop offset="0.716" stop-color="#382CD7"/>
<stop offset="0.882" stop-color="#252AD5"/>
<stop offset="1" stop-color="#1F2AD5"/>
</linearGradient>
<linearGradient id="paint9_linear" x1="500.262" y1="274.564" x2="450.684" y2="318.277" gradientUnits="userSpaceOnUse">
<stop stop-color="#C838E7"/>
<stop offset="0.073" stop-color="#B536E5"/>
<stop offset="0.305" stop-color="#8032DF"/>
<stop offset="0.521" stop-color="#562EDA"/>
<stop offset="0.716" stop-color="#382CD7"/>
<stop offset="0.882" stop-color="#252AD5"/>
<stop offset="1" stop-color="#1F2AD5"/>
</linearGradient>
<linearGradient id="paint10_linear" x1="282.904" y1="429.746" x2="100.056" y2="429.746" gradientUnits="userSpaceOnUse">
<stop stop-color="#2B2894"/>
<stop offset="0.12" stop-color="#2A23A5"/>
<stop offset="0.28" stop-color="#2B24A5"/>
<stop offset="0.48" stop-color="#321DBF"/>
<stop offset="0.866" stop-color="#6D18D7"/>
<stop offset="1" stop-color="#C838E7"/>
</linearGradient>
<linearGradient id="paint11_linear" x1="297.652" y1="445.23" x2="105.093" y2="452.756" gradientUnits="userSpaceOnUse">
<stop stop-color="#C123E4"/>
<stop offset="0.197" stop-color="#8733E0"/>
<stop offset="1" stop-color="#2E1FB8"/>
</linearGradient>
<linearGradient id="paint12_linear" x1="220.548" y1="382.748" x2="159.584" y2="472.754" gradientUnits="userSpaceOnUse">
<stop stop-color="white"/>
<stop offset="1" stop-color="#2F1FB8"/>
</linearGradient>
<linearGradient id="paint13_linear" x1="456.689" y1="-137.724" x2="179.397" y2="-137.724" gradientUnits="userSpaceOnUse">
<stop stop-color="white"/>
<stop offset="0.02" stop-color="#F8F8F8"/>
<stop offset="0.23" stop-color="#B8B7B7"/>
<stop offset="0.42" stop-color="#838081"/>
<stop offset="0.6" stop-color="#9576E0"/>
<stop offset="0.76" stop-color="#886BDC"/>
<stop offset="0.9" stop-color="#6554CF"/>
<stop offset="1" stop-color="#4538BD"/>
</linearGradient>
<linearGradient id="paint14_linear" x1="276.035" y1="401.645" x2="238.663" y2="397.05" gradientUnits="userSpaceOnUse">
<stop stop-color="white"/>
<stop offset="1" stop-color="#AA75E7"/>
</linearGradient>
<linearGradient id="paint15_linear" x1="215.419" y1="363.153" x2="89.7179" y2="463.184" gradientUnits="userSpaceOnUse">
<stop stop-color="white"/>
<stop offset="1" stop-color="#3724BF"/>
</linearGradient>
<linearGradient id="paint16_linear" x1="146.344" y1="392.258" x2="57.4702" y2="439.428" gradientUnits="userSpaceOnUse">
<stop stop-color="white"/>
<stop offset="1" stop-color="#4034BB"/>
</linearGradient>
<linearGradient id="paint17_linear" x1="93.4298" y1="260.874" x2="86.0677" y2="332.737" gradientUnits="userSpaceOnUse">
<stop stop-color="white"/>
<stop offset="0.498" stop-color="#BD4AE0"/>
<stop offset="1" stop-color="#4E20BE"/>
</linearGradient>
<linearGradient id="paint18_linear" x1="17.0932" y1="318.087" x2="96.3043" y2="329.061" gradientUnits="userSpaceOnUse">
<stop stop-color="#FFF1F1"/>
<stop offset="1" stop-color="#29157B"/>
</linearGradient>
<linearGradient id="paint19_linear" x1="1.62426e-06" y1="334.786" x2="177.689" y2="293.498" gradientUnits="userSpaceOnUse">
<stop stop-color="#280D57"/>
<stop offset="1" stop-color="#FFF1F1"/>
</linearGradient>
<linearGradient id="paint20_linear" x1="88.3823" y1="91.963" x2="88.3823" y2="287.957" gradientUnits="userSpaceOnUse">
<stop stop-color="#C584E3"/>
<stop offset="1" stop-color="#34149D"/>
</linearGradient>
<linearGradient id="paint21_linear" x1="229.308" y1="309.309" x2="279.69" y2="244.255" gradientUnits="userSpaceOnUse">
<stop stop-color="#7BBAFC"/>
<stop offset="1" stop-color="#F6FAFE"/>
</linearGradient>
<linearGradient id="paint22_linear" x1="231.588" y1="315.903" x2="275.823" y2="261.281" gradientUnits="userSpaceOnUse">
<stop stop-color="#82BEFC"/>
<stop offset="1" stop-color="#F2F8FE"/>
</linearGradient>
<linearGradient id="paint23_linear" x1="231.081" y1="277.585" x2="285.386" y2="215.243" gradientUnits="userSpaceOnUse">
<stop stop-color="#7BBAFC"/>
<stop offset="1" stop-color="white"/>
</linearGradient>
<linearGradient id="paint24_linear" x1="227.366" y1="295.57" x2="270.685" y2="240.75" gradientUnits="userSpaceOnUse">
<stop stop-color="#7DBBFC"/>
<stop offset="1" stop-color="#F6FAFE"/>
</linearGradient>
<linearGradient id="paint25_linear" x1="316.17" y1="102.334" x2="306.056" y2="80.9808" gradientUnits="userSpaceOnUse">
<stop stop-color="#8A88FD"/>
<stop offset="1" stop-color="#CC39FE"/>
</linearGradient>
</defs>
</svg>
